<svg xmlns="http://www.w3.org/2000/svg" width="69.343" height="69.343" viewBox="0 0 69.343 69.343">
  <g id="arrow-right-circle" transform="translate(0)">
    <path id="Ellipse_23" data-name="Ellipse 23" d="M33.921-.75A34.671,34.671,0,0,1,58.438,58.438,34.671,34.671,0,0,1,9.405,9.405,34.444,34.444,0,0,1,33.921-.75Zm0,64.5A29.834,29.834,0,1,0,4.088,33.921,29.867,29.867,0,0,0,33.921,63.755Z" transform="translate(0.75 0.75)" fill="#f1dfbb"/>
    <path id="Path_8" data-name="Path 8" d="M13.669,37.89a2.419,2.419,0,0,1-1.71-4.129L23.149,22.57,11.958,11.379a2.419,2.419,0,0,1,3.421-3.421l12.9,12.9a2.419,2.419,0,0,1,0,3.421l-12.9,12.9A2.411,2.411,0,0,1,13.669,37.89Z" transform="translate(21.002 12.101)" fill="#f1dfbb"/>
    <path id="Line_1" data-name="Line 1" d="M27.471,4.088H1.669a2.419,2.419,0,1,1,0-4.838h25.8a2.419,2.419,0,1,1,0,4.838Z" transform="translate(20.101 33.002)" fill="#f1dfbb"/>
  </g>
</svg>
