<svg id="arrow-left-circle" xmlns="http://www.w3.org/2000/svg" width="69.343" height="69.343" viewBox="0 0 69.343 69.343">
  <path id="Ellipse_24" data-name="Ellipse 24" d="M33.921-.75A34.671,34.671,0,0,1,58.438,58.438,34.671,34.671,0,0,1,9.405,9.405,34.444,34.444,0,0,1,33.921-.75Zm0,64.5A29.834,29.834,0,1,0,4.088,33.921,29.867,29.867,0,0,0,33.921,63.755Z" transform="translate(0.75 0.75)" fill="#f1dfbb"/>
  <path id="Path_9" data-name="Path 9" d="M22.57,37.89a2.411,2.411,0,0,1-1.71-.708l-12.9-12.9a2.419,2.419,0,0,1,0-3.421l12.9-12.9a2.419,2.419,0,1,1,3.421,3.421L13.09,22.57,24.28,33.76a2.419,2.419,0,0,1-1.71,4.129Z" transform="translate(12.102 12.101)" fill="#f1dfbb"/>
  <path id="Line_2" data-name="Line 2" d="M27.471,4.088H1.669a2.419,2.419,0,1,1,0-4.838h25.8a2.419,2.419,0,1,1,0,4.838Z" transform="translate(20.101 33.002)" fill="#f1dfbb"/>
</svg>
