<svg xmlns="http://www.w3.org/2000/svg" width="2368.987" height="1097.1" viewBox="0 0 2368.987 1097.1">
  <g id="Gruppe_27" data-name="Gruppe 27" transform="translate(242.205 -190.626)">
    <g id="Gruppe_13" data-name="Gruppe 13" transform="matrix(0.998, -0.07, 0.07, 0.998, -96.782, 341.486)">
      <path id="path1" d="M1235.25,2.312c31.076,1.618,53.968,3.973,56.706,5.825,3.813,2.571,5.046,2.559,7.167-.078,1.964-2.427,4.458-2.559,10.479-.533,4.357,1.456,16.728,3.416,27.507,4.351,22.375,1.942,101.772,17.205,107.162,20.6,1.964,1.235,6.106,1.594,9.2.8s15.351.312,27.221,2.475,23.221,3.769,25.2,3.578,9.933,2.109,17.688,5.112a130.068,130.068,0,0,0,27.207,6.874c26.2,2.829,161.272,42.956,237.071,70.433,50.471,18.3,163.854,71.422,200.836,94.093,6.565,4.021,22.634,13.706,35.721,21.526s23.809,15.851,23.809,17.852,2.509,3.638,5.59,3.638,5.6,1.055,5.6,2.337,7.282,8.923,16.183,16.971c145.147,131.272,104.7,335.494-90.692,457.866-83.066,52.024-118.027,67.659-230.651,103.16-83.582,26.344-109.856,33.218-121.195,31.714-7.5-1-10.436-.192-10.564,2.876-.216,5.04-46.572,17.565-58.154,15.707-4.515-.725-9.231.557-11.1,3.008-1.777,2.349-10.191,5.5-18.706,7.012-211.973,37.6-386.921,53.8-516.588,47.834-32.338-1.492-62.583-2.8-67.2-2.906-14.822-.348-57.236-4.639-117.583-11.89C737.109,921,702.851,916.463,679.2,912.124c-12.327-2.259-36.251-6.412-53.194-9.235s-48.435-9.762-69.994-15.425-56.821-14.832-78.379-20.393C366.888,838.5,193.23,754.556,125.043,696.612c-8.343-7.084-18.907-15.8-23.48-19.375-11.3-8.845-50.141-58.813-66.482-85.535C-47.656,456.421,19.056,301.357,202.475,202.608c14.292-7.695,25.974-14.6,25.974-15.366,0-6.988,156.973-75.863,211.758-92.918C453.509,90.19,473.663,83.382,485,79.2s23.565-7.6,27.149-7.611,7.367-.857,8.4-1.894c3.44-3.47,167.939-35.543,220.244-42.944,9.232-1.307,21.831-3.236,28-4.291,22.633-3.859,84.557-11.59,103.578-12.932,10.779-.755,35.979-3.062,56-5.124,45.941-4.728,232.027-6,306.879-2.1m-79.483,9.51c-7.1,4.525-7.353,5.507-1.2,4.519,4.329-.7,9.145-3.3,10.693-5.783,3.755-6.011,1.419-5.7-9.489,1.265M961.955,8.376a2.356,2.356,0,0,0,2.351,2.343c1.291,0,6.867.725,12.414,1.618,9,1.444,9.188,1.2,1.849-2.253-9.346-4.4-16.614-5.148-16.614-1.708m385.775,21.766c7.181,3,14.478.683,9.16-2.919-2.064-1.4-6.321-1.87-9.461-1.061-3.812.989-3.727,2.3.3,3.979M827.974,99.089c1.534,6.862,10.048,10.691,10.407,4.68.215-3.536-2.122-6.436-5.2-6.436s-5.419.791-5.2,1.756M396.43,119.572c0,1.93,4.086,3.512,9.088,3.512,7.439,0,7.826-.635,2.107-3.512-3.827-1.93-7.913-3.512-9.074-3.512s-2.122,1.582-2.122,3.512m438.338,13.705c3.068,3.847,12.1,4.147,23.179.761,9.446-2.889,8.815-3.152-7.382-3.152-9.733,0-16.842,1.079-15.8,2.391M369.353,157.009c1.032.425,9.045.2,17.8-.5,10.851-.869,13.618-1.87,8.7-3.14-6.436-1.666-31.133,1.732-26.5,3.644M268.728,214.558c1.1,1.384,4.4,2.517,7.325,2.517s6.221-1.133,7.325-2.517-2.193-2.517-7.325-2.517-8.428,1.133-7.325,2.517M71.877,357.024c-10.422,8.138-7.081,11.86,10.664,11.86,20.254,0,24.44-2.5,17.316-10.338-6.508-7.155-19.853-7.88-27.98-1.522m2032.336,81.112c0,4.129,12.055,3.41,15.51-.929,1.219-1.528-1.763-2.781-6.651-2.781s-8.858,1.666-8.858,3.709m-67.2-1.366c-6.78,1.834-5.978,2.277,4.2,2.3,13.03.042,16.886,3.338,6.909,5.915-10.435,2.7-.616,5.058,16.642,4,20.842-1.283,20.913-1.66,1.648-8.75-17.6-6.478-18.061-6.532-29.4-3.47M1373.5,682.564c-1.893,1.289-1.964,3.35-.144,4.585,4.6,3.11,19.738.306,19.738-3.661,0-3.746-14.42-4.423-19.594-.923m181.986,189.618c0,1.288,3.77,2.343,8.4,2.343s8.385-1.055,8.385-2.343-3.77-2.343-8.385-2.343-8.4,1.055-8.4,2.343m-1021.866,0c-1.907,1.288-1.749,3.506.358,4.932,3.77,2.547,13.345-1.355,13.546-5.52.129-2.565-9.876-2.145-13.9.587m745.633,31.432c-4.128,4.495,8.514,8.648,18.491,6.065,6.493-1.678,6.579-2.661.531-5.717-9.088-4.578-15.051-4.687-19.022-.348" transform="translate(0 0)" fill="#f1dfbb" fill-rule="evenodd"/>
    </g>
    <path id="path1-2" data-name="path1" d="M395.767,14.758c-95.515,46.174-165.177,97.61-215.259,158.961-34.927,42.788-64.258,102.118-76.7,155.169-19.844,84.566,16.945,199.434,86.708,270.7a148.883,148.883,0,0,1,12.559,15.181c21.5,30.47,96.937,89.415,158.653,123.965,25.844,14.464,72.9,37.452,81.6,39.857,8.541,2.366-48.863-1.645-75.983-5.306C308.7,765.364,206.077,712.64,147.727,660.457c-6.128-5.483-12.569-10.794-14.312-11.809C115.48,638.255,55.836,563.93,34.487,525.373-75.275,327.13,88.8,67.585,359.2,11.731,380.684,7.3,421.841,0,425.392,0c.5,0-12.826,6.641-29.625,14.758M47.066,324.389c0,3.135,3.431,4.417,9.083,3.4,5.991-1.079,2.679-5.648-4.092-5.647-2.743,0-4.991,1.015-4.991,2.25m-8.128,88.97c1.376,2.474,2.77,2.893,4.706,1.416,3.275-2.491.33-6.964-3.789-5.764-1.578.458-1.99,2.418-.917,4.348m15.293,58.889c0,1.852,2.266,3.372,5.037,3.372,3.284,0,4.386-1.179,3.174-3.372a6.687,6.687,0,0,0-5.046-3.372,3.28,3.28,0,0,0-3.165,3.372" transform="translate(-133.748 338.467) rotate(8)" fill="#f1dfbb" fill-rule="evenodd"/>
  </g>
</svg>
