<svg xmlns="http://www.w3.org/2000/svg" width="1973.683" height="865.507" viewBox="0 0 1973.683 865.507">
  <g id="Gruppe_9" data-name="Gruppe 9" transform="translate(-28.39 -309.194)">
    <path id="path1" d="M1601.787,109.359c96.136,51.281,166.25,108.408,216.659,176.545,35.154,47.522,64.675,113.414,77.2,172.335,19.973,93.921-17.055,221.5-87.271,300.644a162.941,162.941,0,0,0-12.641,16.861c-21.644,33.841-97.567,99.307-159.685,137.679-26.012,16.065-73.374,41.595-82.128,44.266-8.6,2.628,49.181-1.827,76.477-5.893,59.024-8.795,162.316-67.351,221.045-125.307,6.168-6.09,12.651-11.988,14.4-13.115,18.052-11.542,78.083-94.089,99.571-136.912C2075.891,456.288,1910.749,168.03,1638.594,106c-21.626-4.925-63.05-13.029-66.624-13.029-.5,0,12.91,7.375,29.817,16.39m350.968,343.883c0,3.481-3.453,4.906-9.142,3.774-6.03-1.2-2.7-6.272,4.118-6.272,2.761,0,5.023,1.127,5.023,2.5m8.181,98.813c-1.385,2.748-2.789,3.213-4.737,1.573-3.3-2.767-.333-7.735,3.814-6.4,1.588.508,2,2.685.923,4.829m-15.393,65.4c0,2.057-2.281,3.745-5.069,3.745-3.306,0-4.414-1.309-3.195-3.745,1.044-2.062,3.324-3.745,5.079-3.745a3.507,3.507,0,0,1,3.185,3.745" transform="translate(1.946 216.226)" fill="#f1dfbb" fill-rule="evenodd"/>
    <path id="path1-2" data-name="path1" d="M901.288,184.218c-25.979,1.476-45.116,3.625-47.4,5.315-3.188,2.346-4.218,2.335-5.991-.071-1.642-2.215-3.727-2.335-8.76-.487-3.642,1.329-13.984,3.117-23,3.97-18.7,1.772-85.078,15.7-89.584,18.8-1.642,1.126-5.1,1.455-7.693.727s-12.833.284-22.755,2.258-19.412,3.439-21.066,3.264-8.3,1.925-14.786,4.664a101.373,101.373,0,0,1-22.744,6.272c-21.9,2.581-134.818,39.2-198.184,64.267-42.192,16.7-136.976,65.169-167.892,85.855-5.488,3.669-18.921,12.506-29.861,19.642s-19.9,14.463-19.9,16.29-2.1,3.319-4.673,3.319-4.685.962-4.685,2.133-6.088,8.142-13.529,15.486C77.443,555.7,111.259,742.043,274.6,853.7c69.44,47.469,98.667,61.735,192.816,94.128,69.872,24.038,91.836,30.31,101.315,28.937,6.267-.908,8.724-.175,8.831,2.625.18,4.6,38.932,16.027,48.614,14.332,3.775-.662,7.717.508,9.275,2.745,1.485,2.143,8.52,5.02,15.637,6.4,177.2,34.312,323.453,49.093,431.849,43.646,27.034-1.361,52.317-2.553,56.176-2.652,12.39-.317,47.848-4.233,98.3-10.849,80.309-10.532,108.948-14.676,128.72-18.635,10.305-2.062,30.3-5.851,44.468-8.427s40.49-8.908,58.512-14.075,47.5-13.534,65.522-18.608c92.58-26.066,237.752-102.664,294.754-155.535,6.975-6.464,15.806-14.42,19.628-17.679,9.443-8.071,41.916-53.664,55.576-78.047,69.165-123.437,13.4-264.925-139.935-355.029-11.947-7.021-21.713-13.326-21.713-14.02,0-6.376-131.224-69.221-177.022-84.783-11.12-3.773-27.968-9.985-37.446-13.8s-19.7-6.939-22.7-6.944-6.159-.782-7.022-1.728c-2.876-3.166-140.391-32.431-184.116-39.184-7.718-1.192-18.25-2.953-23.4-3.915-18.921-3.521-70.687-10.575-86.588-11.8-9.011-.689-30.077-2.794-46.817-4.675-38.4-4.314-193.966-5.479-256.54-1.914m66.445,8.678c5.931,4.128,6.147,5.025,1.007,4.123-3.619-.634-7.645-3.007-8.939-5.277-3.139-5.484-1.186-5.2,7.932,1.154m162.02-3.144a2.065,2.065,0,0,1-1.965,2.138c-1.079,0-5.74.662-10.377,1.477-7.525,1.318-7.681,1.094-1.546-2.056,7.813-4.019,13.888-4.7,13.888-1.558m-322.494,19.86c-6,2.739-12.1.623-7.657-2.663,1.726-1.274,5.284-1.706,7.909-.968,3.187.9,3.116,2.094-.251,3.631m434.5,62.911c-1.282,6.261-8.4,9.755-8.7,4.271-.179-3.226,1.774-5.873,4.35-5.873s4.53.722,4.35,1.6m360.755,18.69c0,1.761-3.416,3.2-7.6,3.2-6.219,0-6.542-.58-1.761-3.2,3.2-1.761,6.615-3.2,7.585-3.2s1.774,1.444,1.774,3.2m-366.435,12.506c-2.564,3.511-10.114,3.784-19.377.694-7.9-2.636-7.37-2.876,6.171-2.876,8.136,0,14.08.984,13.205,2.182m389.071,21.654c-.863.388-7.561.18-14.882-.459-9.071-.793-11.384-1.706-7.273-2.865,5.38-1.52,26.026,1.58,22.156,3.325m84.12,52.511c-.922,1.263-3.678,2.3-6.123,2.3s-5.2-1.034-6.123-2.3,1.833-2.3,6.123-2.3,7.046,1.034,6.123,2.3m164.56,129.994c8.712,7.426,5.919,10.822-8.915,10.822-16.932,0-20.431-2.28-14.475-9.433,5.44-6.529,16.6-7.191,23.39-1.389M174.864,581.887c0,3.767-10.078,3.111-12.965-.848-1.019-1.394,1.474-2.537,5.56-2.537s7.405,1.52,7.405,3.385m56.176-1.247c5.668,1.673,5,2.078-3.511,2.1-10.893.038-14.116,3.046-5.776,5.4,8.724,2.461.515,4.615-13.912,3.653-17.423-1.17-17.483-1.515-1.378-7.984,14.715-5.911,15.1-5.96,24.577-3.166M785.713,804.916a2.463,2.463,0,0,1,.12,4.183c-3.847,2.838-16.5.279-16.5-3.341,0-3.418,12.055-4.035,16.38-.842M633.579,977.933c0,1.175-3.152,2.138-7.022,2.138s-7.01-.963-7.01-2.138,3.151-2.138,7.01-2.138,7.022.962,7.022,2.138m854.245,0c1.594,1.175,1.462,3.2-.3,4.5-3.152,2.324-11.156-1.236-11.324-5.036-.108-2.34,8.256-1.958,11.623.536M864.5,1006.613c3.451,4.1-7.118,7.891-15.458,5.534-5.428-1.531-5.5-2.428-.443-5.216,7.6-4.178,12.582-4.276,15.9-.317" transform="translate(-97.61 127.086)" fill="#f1dfbb" fill-rule="evenodd"/>
  </g>
</svg>
