<svg xmlns="http://www.w3.org/2000/svg" xmlns:xlink="http://www.w3.org/1999/xlink" width="237.472" height="25.718" viewBox="0 0 237.472 25.718">
  <defs>
    <clipPath id="clip-path">
      <rect id="Rectangle_36" data-name="Rectangle 36" width="237.472" height="25.718" transform="translate(0 0.001)" fill="none"/>
    </clipPath>
  </defs>
  <g id="Group_68" data-name="Group 68" transform="translate(0 0)">
    <g id="Group_67" data-name="Group 67" clip-path="url(#clip-path)">
      <path id="Path_95" data-name="Path 95" d="M4.01,8.368a10.08,10.08,0,0,0,.2,2.581c.2.595.595.794,2.382.794,1.985,0,4.248-.2,4.248-.2a8.331,8.331,0,0,1,0,2.819s-1.667-.119-3.057-.119c-2.184,0-2.7.159-2.978.993a22.718,22.718,0,0,0-.2,4.049,54.283,54.283,0,0,0,.317,5.956,25.473,25.473,0,0,1-4.684-.08s.2-2.7.2-9.25C.437,3.8,0,.031,0,.031s11.514.2,17.152.2a6.21,6.21,0,0,1,0,2.263s-2.462-.08-5.439-.08c-6.154,0-7.028.04-7.306.993a20.351,20.351,0,0,0-.4,4.963"/>
      <path id="Path_96" data-name="Path 96" d="M16.874,4.318a9.383,9.383,0,0,1-.2,3.057A15.449,15.449,0,0,1,12.427,7.3a10.77,10.77,0,0,1,.12-2.978,17.388,17.388,0,0,1,4.327,0m-.635,20.924a15.519,15.519,0,0,1-3.534.119s.04-4.884.04-8.258-.119-8.338-.119-8.338a13.216,13.216,0,0,1,3.772-.2Z"/>
      <path id="Path_97" data-name="Path 97" d="M23.544.229s-.4,8.933-.4,16.278c0,2.978.119,4.765.715,5.36.953.953,2.58,1.192,6.352,1.192,5.162,0,8.377-.2,8.377-.2a9.66,9.66,0,0,1,.08,2.66s-4.05-.079-9.013-.079c-7.146,0-10.243.2-10.243.2s.159-4.169.159-9.33c0-12.7-.318-15.881-.318-15.881a21.074,21.074,0,0,1,4.288-.2"/>
      <path id="Path_98" data-name="Path 98" d="M37.163,20.8c-1.39-4.288-3.295-9.965-4.486-12.824-.2-.477-.4-.794-.676-.794-.357,0-.357.555-.4,1.747s-.039,3.216-.039,4.407c0,4.169.159,7.663.159,7.663a24.413,24.413,0,0,1-3.494.079s.238-4.963.238-11.316c0-5.558-.119-9.37-.119-9.37A33.763,33.763,0,0,1,34.026.229c1.311,4.169,3.852,11.156,4.8,13.7.12.318.278.715.556.715.238,0,.437-.357.914-1.429C41.888,9.638,42.92,6.9,43.913,4a31.548,31.548,0,0,1,5.359.119s-.158,4.764-.158,10.322c0,6.353.2,10.8.2,10.8a21.824,21.824,0,0,1-4.089.2c.2-4.249.317-10.046.317-14.85,0-.913-.039-1.032-.238-1.032-.278,0-.516.476-1.112,1.668C43,13.608,41.411,17.5,40.141,20.8a7.43,7.43,0,0,1-2.978,0"/>
      <path id="Path_99" data-name="Path 99" d="M53.8,10.353a33.774,33.774,0,0,0-.238-5.638c-.4-1.588-1.35-1.985-9.688-2.184l-5.241-.119a5.346,5.346,0,0,1-.04-2.263C40.7.109,47.406.03,56.736.03c7.742,0,16.437.079,19.534.159a6.926,6.926,0,0,1,0,2.223l-7.822.08c-9.29.079-10.6.158-10.918,1.429a36.05,36.05,0,0,0-.278,5.836c0,12.308.238,15.683.238,15.683a18.064,18.064,0,0,1-3.89,0s.2-6.948.2-15.087"/>
      <path id="Path_100" data-name="Path 100" d="M71.5,16.9c-.4-.754-1.191-.992-2.779-.992-1.985,0-2.5.317-2.7.714a8.568,8.568,0,0,0-.278,3.058c0,3.573.239,5.757.239,5.757a19.779,19.779,0,0,1-4.09-.2s.159-2.779.159-8.338v-.4c0-7.94-.278-12.308-.278-12.308S64.359,4,68.131,4h.2c4.963,0,7.822,1.39,7.822,5.558,0,3.375-1.866,4.765-3.454,5.36,1.985.6,2.778,1.39,2.778,4.963,0,3.1,1.192,3.494,4.368,3.494,2.184,0,3.891-.119,3.891-.119a7.453,7.453,0,0,1,0,2.1,29.562,29.562,0,0,1-5.042.358c-5.082,0-6.79-.676-6.79-4.249,0-2.382,0-3.771-.4-4.566m.2-3.97a3.989,3.989,0,0,0,.675-2.779,5.375,5.375,0,0,0-.6-2.978c-.357-.476-1.072-.794-3.057-.794-1.191,0-2.422.119-2.858.556-.4.4-.517.953-.517,3.811,0,1.231.04,2.144.4,2.5a4.608,4.608,0,0,0,2.581.4c2.184,0,2.9-.238,3.375-.715"/>
      <path id="Path_101" data-name="Path 101" d="M77.462,21.669C79.685,14.721,81.63,7.614,83.377.547A42.865,42.865,0,0,1,89.73.428c2.1,8.1,4.367,16.517,7.028,24.814-1.192.08-4.884.08-5.321-.2,0,0-.992-4.645-1.786-7.028-.4-1.191-.795-1.27-3.057-1.27h-.2c-2.78,0-2.819.079-3.176,1.151-.636,1.906-1.112,3.97-1.112,3.97a22.738,22.738,0,0,1-4.645-.2M88.261,6.3c-.556-1.985-.794-2.5-1.39-2.5s-.794.794-1.389,2.978l-1.271,4.764c-.715,2.7-.6,2.779,2.581,2.779h.318c3.335,0,3.335-.159,2.779-2.184Z"/>
      <path id="Path_102" data-name="Path 102" d="M105.69,25.639c-6.63,0-7.861-1.787-7.861-8.337,0-14.493-.238-16.755-.238-16.755a35.045,35.045,0,0,1,3.533-.119s.04,10.521.04,13.7c0,4.963,0,6.551.4,7.345s1.826.993,4.209.993c2.58,0,3.335-.4,3.732-1.191.437-.874.437-2.184.437-5.956,0-5.36-.318-14.888-.318-14.888a20.964,20.964,0,0,1,3.93.079s.16,8.854.16,16.8c0,5.756-1.351,8.337-8.021,8.337"/>
      <path id="Path_103" data-name="Path 103" d="M128.361,17.222c1.588-4.368,3.3-8.933,4.486-13.1A31.409,31.409,0,0,1,139,4.4v9.529c0,7.345.238,11.514.238,11.514a21.827,21.827,0,0,1-4.09.2c.238-5.042.357-11.752.357-16.556,0-.993-.079-1.192-.317-1.192-.318,0-.437.279-.755,1.073-1.588,3.97-4.486,11.911-5.678,15.881a5.849,5.849,0,0,1-2.977-.08c-1.191-4.764-3.533-12.824-5.122-17.588-.277-.834-.437-1.072-.754-1.072-.238,0-.318.159-.357,1.151-.08,1.986-.12,5.8-.12,8.854,0,6.353.159,8.973.159,8.973a17.791,17.791,0,0,1-3.017.079s.2-4.486.2-11.831c0-7.941-.039-12.9-.039-12.9a32.357,32.357,0,0,1,5.558-.2c1.231,5.161,3.811,13.42,5,16.993.119.357.278.675.555.675.239,0,.358-.238.517-.675"/>
      <path id="Path_104" data-name="Path 104" d="M162.03.189a5.484,5.484,0,0,1,.04,2.263l-7.584.079c-6.551.08-6.829.318-7.186,1.39a22.983,22.983,0,0,0-.357,5.241c0,8.338.317,16.2.317,16.2a13.322,13.322,0,0,1-3.97,0s.278-6.472.278-14.412a50.687,50.687,0,0,0-.318-6.869c-.318-1.271-1.072-1.469-10.64-1.588l-7.226-.119a6.686,6.686,0,0,1,0-2.184c2.66-.08,8.02-.159,15.762-.159,6.154,0,15.127.04,20.884.159"/>
      <path id="Path_105" data-name="Path 105" d="M151.588,4.08A21.836,21.836,0,0,1,155.6,4s-.119,5.36-.119,10.72c0,3.772.04,5,.476,5.876.4.794,1.112,1.27,3.693,1.27,2.381,0,3.494-.238,3.969-1.191.477-.913.557-2.977.557-7.146,0-3.177-.238-13.1-.238-13.1a35.065,35.065,0,0,1,3.533.119s-.2,1.866-.158,16.357c0,6.551-1.549,8.537-7.9,8.537-6.75,0-7.782-2.581-7.782-7.941,0-7.941-.039-13.42-.039-13.42"/>
      <path id="Path_106" data-name="Path 106" d="M170.526,25.52s.04-3.454.04-8.814c0-11.117-.318-15.961-.318-15.961a15.468,15.468,0,0,1,4.328-.317c2.62,4.566,5.439,9.092,8.3,13.38.476.714.635.913.992.913.278,0,.357-.2.4-.755s.079-2.9.079-4.883c0-4.486-.238-8.854-.238-8.854a25.089,25.089,0,0,1,3.494,0s-.159,6.948-.159,13.1c0,6.353.04,7.941.04,7.941a14.336,14.336,0,0,1-4.208.2c-2.779-4.764-5.639-9.33-8.418-13.5-.475-.715-.635-.913-.913-.913-.238,0-.4.119-.4.635,0,13.777.158,17.748.158,17.748a19.939,19.939,0,0,1-3.176.079"/>
      <path id="Path_107" data-name="Path 107" d="M195.1.467c2.184,5.122,5.32,11.554,8.1,16.715.276.516.435.754.832.754.278,0,.437-.039.476-.6s.08-2.3.08-4.288c0-5.559-.515-12.626-.515-12.626a29.306,29.306,0,0,1,3.771,0s-.159,7.147-.159,16.874c0,6.353.079,7.941.079,7.941a17.4,17.4,0,0,1-5,0c-2.541-5.6-4.883-10.522-7.662-16.08-.4-.794-.517-.913-.874-.913-.238,0-.438.119-.438.635v.477c0,1.866.28,11.712.28,12.7,0,2.183-.439,3.652-4.607,3.652a51.573,51.573,0,0,1-6.154-.317,4.6,4.6,0,0,1,0-1.946l2.938.119c4.368.159,4.567-.516,4.567-6.471v-.2c0-9.926-.317-16.159-.317-16.159A17.542,17.542,0,0,1,195.1.467"/>
      <path id="Path_108" data-name="Path 108" d="M214.042,6.581a14.863,14.863,0,0,0,.278,3.891c.239.477.913.556,4.487.556,2.779,0,4.526-.079,4.526-.079a12.325,12.325,0,0,1,.079,2.461l-4.6.08c-2.78.039-3.454.118-3.772.754a8.845,8.845,0,0,0-.318,3.136,17.927,17.927,0,0,0,.318,4.606c.237.476.6.635,3.374.635s5.122-.2,5.122-.2a11.992,11.992,0,0,1-.159,2.819c-9.33,0-12.863.079-12.863.079s.357-6.154.357-11.514c0-8.536-.238-13.579-.238-13.579s5.717,0,12.586-.2a11.587,11.587,0,0,1-.04,2.978s-1.787-.119-3.772-.119c-3.772,0-4.843.158-5.082.635a8.041,8.041,0,0,0-.278,3.057"/>
      <path id="Path_109" data-name="Path 109" d="M229.885.031s-.437,9.33-.437,16.675a16.313,16.313,0,0,0,.278,3.971c.238.714.675.992,2.977.992,2.185,0,4.686-.2,4.686-.2a29.615,29.615,0,0,1,.04,3.772c-9.529,0-11.832.2-11.832.2s.159-4.169.159-9.33c0-12.705-.159-15.882-.159-15.882a21.147,21.147,0,0,1,4.288-.2"/>
    </g>
  </g>
</svg>
