<svg xmlns="http://www.w3.org/2000/svg" width="2719.911" height="1178.012" viewBox="0 0 2719.911 1178.012">
  <path id="footer-svg" d="M1253.33,153.495c-37.392,1.231-95.28,11.813-98.574,13.221-4.588,1.955-6.071,1.946-8.624-.059-2.363-1.846-5.364-1.946-12.608-.406-5.243,1.108-20.128,2.6-33.1,3.309-26.923,1.477-114.544,14.466-121.029,17.05-2.363.939-7.347,1.212-11.073.606s-18.471.237-32.752,1.882c-14.3,1.641-27.94,2.867-30.321,2.721s-11.952,1.6-21.283,3.888a234.035,234.035,0,0,1-32.736,5.228c-31.528,2.151-214.258,15.127-305.461,36.025-60.728,13.92-197.154,54.321-241.651,71.563-7.9,3.058-27.234,10.424-42.98,16.372-15.764,5.943-28.648,12.055-28.648,13.578s-3.018,2.767-6.726,2.767-6.743.8-6.743,1.778-8.762,6.787-19.472,12.908C24.906,455.765,104.783,648.831,339.88,741.9c99.948,39.567,142.014,51.458,277.526,78.459,100.568,20.036,132.183,25.264,145.825,24.12,9.021-.757,12.556-.146,12.711,2.188.26,3.833,56.036,13.359,69.972,11.946,5.433-.552,11.108.424,13.35,2.288,2.138,1.787,12.263,4.184,22.507,5.333,255.052,28.6,465.555,40.92,621.573,36.381,38.91-1.135,75.3-2.128,80.855-2.21,17.834-.264,68.868-3.528,141.479-9.043,115.591-8.778,156.812-12.233,185.27-15.533,14.832-1.718,43.618-4.877,64-7.024s58.279-7.425,84.218-11.732,68.368-11.281,94.308-15.51c133.252-21.727,342.2-85.574,424.247-129.643,10.039-5.388,22.749-12.019,28.251-14.736,13.591-6.727,60.331-44.731,79.992-65.054,99.552-102.889,66.907-358.737-153.788-433.841-17.2-5.852-31.253-11.108-31.253-11.686,0-5.314-135.562-96.079-201.48-109.051-16.006-3.145,48.137-33.943,34.495-37.12S2217.2,60.269,2212.885,60.265c-4.329,0-8.865-.652-10.107-1.44-4.139-2.639-205.977,36.36-268.912,30.731-11.108-.994-26.268-2.461-33.685-3.264-27.233-2.935-190.4,28.271-213.286,27.25-12.97-.574-43.291-2.329-67.385-3.9-55.277-3.6-276.116,40.878-366.18,43.85m95.636,7.233c8.537,3.441,8.848,4.189,1.449,3.437-5.209-.529-11-2.507-12.866-4.4-4.519-4.571-1.708-4.334,11.417.962m216.221-47.478c0,.98-1.277,1.782-2.828,1.782s8.717,45.409,2.043,46.088c-10.831,1.1-11.055.912-2.225-1.714,11.245-3.35,3.01-48.773,3.01-46.156m-477.539,70.2c-8.641,2.283-17.42.52-11.021-2.22,2.484-1.062,7.606-1.422,11.383-.807,4.588.752,4.484,1.746-.362,3.026m652.663-1.8c-1.846,5.219-12.09,8.131-12.522,3.56-.258-2.689,2.554-4.9,6.261-4.9s6.52.6,6.261,1.335m611.811-84.9c0,1.468-4.916,2.671-10.935,2.671-8.951,0-9.417-.483-2.535-2.671,4.605-1.468,9.521-2.671,10.917-2.671a2.627,2.627,0,0,1,2.553,2.671m-619.986,110.9c-3.691,2.926-14.557,3.154-27.889.579-11.366-2.2-10.607-2.4,8.883-2.4,11.711,0,20.265.82,19.007,1.819m599.253-44.048c-1.242.324-10.883.15-21.421-.383-13.056-.661-16.385-1.422-10.469-2.388,7.744-1.267,37.461,1.317,31.89,2.771m121.076,43.769c-1.328,1.053-5.294,1.914-8.813,1.914s-7.485-.862-8.813-1.914,2.639-1.914,8.813-1.914,10.141.862,8.813,1.914M2641.7,453.646c12.54,6.19,8.52,9.02-12.831,9.02-24.37,0-29.407-1.9-20.835-7.862,7.83-5.442,23.887-5.994,33.666-1.158M196.331,515.336c0,3.14-14.5,2.593-18.661-.706-1.466-1.162,2.121-2.115,8-2.115,5.864,0,10.659,1.267,10.659,2.821m80.855-1.039c8.158,1.395,7.192,1.732-5.053,1.75-15.678.032-20.318,2.539-8.313,4.5,12.556,2.051.741,3.847-20.024,3.045-25.077-.975-25.164-1.263-1.984-6.655,21.18-4.927,21.732-4.968,35.374-2.639m798.357,186.94c2.277.98,2.363,2.548.173,3.487-5.537,2.366-23.75.232-23.75-2.785,0-2.849,17.351-3.364,23.577-.7M856.572,845.453c0,.98-4.536,1.782-10.107,1.782-5.554,0-10.089-.8-10.089-1.782s4.536-1.782,10.089-1.782c5.571,0,10.107.8,10.107,1.782m1229.538,0c2.295.98,2.1,2.666-.431,3.751-4.536,1.937-16.057-1.03-16.3-4.2-.155-1.951,11.883-1.632,16.729.447m-897.166,23.906c4.967,3.418-10.245,6.577-22.249,4.613-7.813-1.276-7.917-2.024-.638-4.348,10.935-3.482,18.11-3.564,22.887-.264" transform="translate(5.7 -52.652) rotate(7)" fill="#f1dfbb" fill-rule="evenodd"/>
</svg>
