<svg xmlns="http://www.w3.org/2000/svg" xmlns:xlink="http://www.w3.org/1999/xlink" width="295.802" height="245.719" viewBox="0 0 295.802 245.719">
  <defs>
    <linearGradient id="linear-gradient" x1="1.138" y1="1.089" x2="-0.133" y2="-0.067" gradientUnits="objectBoundingBox">
      <stop offset="0" stop-color="#e24a1d"/>
      <stop offset="1" stop-color="#e18230"/>
    </linearGradient>
  </defs>
  <g id="FTT_simple" transform="translate(-571.943 -61.152)">
    <g id="Group_1" data-name="Group 1" transform="translate(571.943 61.152)">
      <path id="Path_1" data-name="Path 1" d="M639.142,61.152H796.061s71.558,2.179,71.558,98.8c1.777,46.458-15.607,72.866-26.239,84.558a52.726,52.726,0,0,1-7.906,7.343H606.088s-34.145-13.077-34.145-95.35S639.142,61.152,639.142,61.152Z" transform="translate(-571.943 -61.152)"/>
      <path id="Path_2" data-name="Path 2" d="M633.842,71.5s-45.8,28.212-43.289,92.215,36.185,81.937,36.185,81.937l174.712,4.339s33.47-34.82,33.47-97.245c-6.274-69.952-44.23-77.256-44.23-77.256Z" transform="translate(-563.577 -56.474)" fill="#f6e9cb"/>
      <path id="Path_3" data-name="Path 3" d="M632.6,71.72l156.465-.677s34.8,37.143,34.8,94.079-15.77,78.152-15.77,78.152L619,243s-25.629-29.9-25.79-82.017C593.207,103.589,632.6,71.72,632.6,71.72Z" transform="translate(-562.332 -56.681)"/>
      <path id="Path_4" data-name="Path 4" d="M810.3,159.616c0,24.2,2.431,61.6-16.291,77.467-4.571,3.964-19.891,4.591-26.038,6.843-16.991,6.226-40.191,3.36-61.189,3.36-24.826,0-53.635-1.343-64.979-6.83-23.236-16.078-38.538-53.447-38.538-80.84,0-27.236,11.433-61.7,34.441-77.777,17.893-12.507,44.065-9.894,69.077-9.894,28.039,0,53.471-1.559,72.113,13.773C798.266,101.65,810.3,134.944,810.3,159.616Z" transform="translate(-557.784 -56.376)" fill="#873f12"/>
      <path id="Path_5" data-name="Path 5" d="M855.6,203.856H578.447v-8.211l15.87-7.289,244.123-.923L855.6,198.479Z" transform="translate(-569.003 -4.075)"/>
      <path id="Path_6" data-name="Path 6" d="M794.475,163.223c-4.54,58.169-33.769,75.014-49.775,79.364s-53.07,10.258-79.512.855c-30.486-14.277-51.554-44.831-51.554-80.219,0-61.975,40.483-88.821,90.421-88.821S794.475,114.169,794.475,163.223Z" transform="translate(-553.1 -55.163)" fill="url(#linear-gradient)"/>
      <ellipse id="Ellipse_1" data-name="Ellipse 1" cx="72.588" cy="76.252" rx="72.588" ry="76.252" transform="translate(77.921 29.446)" fill="#f1e0bd"/>
    </g>
    <path id="Path_7" data-name="Path 7" d="M852.2,206.51H578.447v34.662H858.192V212.5ZM634.2,229.9A1.494,1.494,0,0,1,632.7,231.4H620.619a1.493,1.493,0,0,1-1.493-1.493V216.485a1.493,1.493,0,0,1,1.493-1.493H632.7a1.494,1.494,0,0,1,1.492,1.493Zm60.389,0a1.493,1.493,0,0,1-1.493,1.493H681.008a1.493,1.493,0,0,1-1.493-1.493V216.485a1.493,1.493,0,0,1,1.493-1.493h12.085a1.493,1.493,0,0,1,1.493,1.493Zm59.408,0A1.493,1.493,0,0,1,752.5,231.4H740.416a1.493,1.493,0,0,1-1.493-1.493V216.485a1.493,1.493,0,0,1,1.493-1.493H752.5a1.493,1.493,0,0,1,1.493,1.493Zm59.711,0a1.493,1.493,0,0,1-1.493,1.493H800.127a1.493,1.493,0,0,1-1.493-1.493V216.485a1.493,1.493,0,0,1,1.493-1.493h12.085a1.493,1.493,0,0,1,1.493,1.493Z" transform="translate(2.939 65.699)"/>
  </g>
</svg>
