<svg xmlns="http://www.w3.org/2000/svg" xmlns:xlink="http://www.w3.org/1999/xlink" width="434" height="434" viewBox="0 0 434 434">
  <defs>
    <clipPath id="clip-path">
      <rect id="Rectangle_40" data-name="Rectangle 40" width="317.344" height="225.199" fill="none"/>
    </clipPath>
    <clipPath id="clip-path-2">
      <rect id="Rectangle_41" data-name="Rectangle 41" width="261.181" height="31.66" fill="none"/>
    </clipPath>
  </defs>
  <g id="FTT_logo_without_font" transform="translate(18247 1826)">
    <g id="Group_133" data-name="Group 133">
      <rect id="Rectangle_42" data-name="Rectangle 42" width="434" height="434" rx="217" transform="translate(-18247 -1826)" fill="#e24a1d"/>
      <g id="Group_141" data-name="Group 141" transform="translate(20.881 39.392)">
        <g id="Group_112" data-name="Group 112" transform="translate(-18209.334 -1783)">
          <g id="Group_108" data-name="Group 108" clip-path="url(#clip-path)">
            <path id="Path_108" data-name="Path 108" d="M252.88,24.074a110.439,110.439,0,0,1,24.472,38.4,162.1,162.1,0,0,1,8.719,37.483c2.263,20.428-1.927,48.169-9.86,65.39-.412.9-1.055,2.545-1.427,3.667-2.444,7.362-11.021,21.6-18.036,29.946a93.133,93.133,0,0,1-9.277,9.627c-.97.572,5.556-.4,8.638-1.282a39.537,39.537,0,0,0,23.712-19.936c.495-.977,2.224-7.719,2.814-8.643,2.038-2.51,11.837-21.98,14.265-31.294,12.479-47.888-10.165-115.1-40.906-128.6-2.454-1.083-12.161-4.17-14.721-4.975-.057,0,9.69,8.248,11.6,10.209M153.667,32.9a10.053,10.053,0,0,0-4.127,1.014c-.278.448-.367.446-.522-.012-.142-.422-.323-.446-.763-.093a6.011,6.011,0,0,1-2,.757,32.774,32.774,0,0,0-7.8,3.585.5.5,0,0,1-.669.139,3.518,3.518,0,0,0-1.981.43,7.249,7.249,0,0,1-1.833.622,3.42,3.42,0,0,0-1.294.889,5.762,5.762,0,0,1-1.98,1.2c-1.907.485-11.735,7.476-17.25,12.259A129.971,129.971,0,0,0,98.837,70.057c-.484.7-1.647,2.386-2.6,3.747A11.479,11.479,0,0,0,94.5,76.911c0,.348-.182.634-.407.634a.409.409,0,0,0-.407.407A18.347,18.347,0,0,1,92.512,80.9c-10.561,22.847-7.618,58.39,6.6,79.69,6.043,9.052,8.588,11.775,16.783,17.953,6.081,4.586,7.994,5.782,8.819,5.52.545-.173.761-.034.769.5.017.878,3.4,3.057,4.232,2.733.323-.126.673.1.808.524a2.6,2.6,0,0,0,1.361,1.22c15.424,6.545,28.153,9.364,37.589,8.325,2.353-.26,4.553-.485,4.89-.506a60.662,60.662,0,0,0,8.555-2.069,102.059,102.059,0,0,0,11.2-3.556c.9-.393,2.638-1.116,3.872-1.607a39.243,39.243,0,0,0,5.093-2.684c1.568-.985,4.135-2.587,5.7-3.556,8.058-4.972,20.691-19.583,25.656-29.667.608-1.233,1.376-2.748,1.709-3.372a130.522,130.522,0,0,0,4.838-14.887c6.02-23.544,1.166-50.532-12.18-67.72a20.346,20.346,0,0,1-1.889-2.674c0-1.216-11.421-13.2-15.408-16.164-.969-.719-2.434-1.9-3.258-2.631a6.085,6.085,0,0,0-1.975-1.324.694.694,0,0,1-.612-.323c-.251-.6-12.22-6.186-16.025-7.474-.672-.228-1.589-.562-2.036-.746a59.892,59.892,0,0,0-7.538-2.251c-.784-.131-2.618-.533-4.074-.892-3.343-.822-16.884-1.046-22.33-.365m5.784,1.655c.515.788.535.959.087.788a1.593,1.593,0,0,1-.777-1.008c-.274-1.046-.1-.992.691.22m14.1-.6c0,.225-.078.407-.171.407a4.884,4.884,0,0,0-.9.282c-.654.252-.669.208-.135-.393.681-.766,1.209-.9,1.209-.3m-28.071,3.789c-.521.521-1.054.12-.666-.508a.506.506,0,0,1,.689-.184c.278.172.272.4-.023.692m37.824,12c-.112,1.194-.73,1.86-.756.808-.016-.616.162-1.12.378-1.12s.395.137.378.305m31.4,3.564a.648.648,0,0,1-.661.612c-.541,0-.568-.111-.153-.612a2.163,2.163,0,0,1,.66-.611c.084,0,.161.275.161.611m-31.895,2.386c-.223.669-.881.722-1.686.133-.687-.5-.646-.548.537-.548.708,0,1.225.188,1.149.415m33.866,4.13a3.207,3.207,0,0,1-1.294-.088c-.789-.151-.991-.323-.633-.546.468-.29,2.263.3,1.928.634m7.322,10.021a.543.543,0,0,1-1.065,0c-.081-.241.162-.437.534-.437s.613.2.533.437m14.323,24.8c.758,1.417.515,2.065-.776,2.065-1.474,0-1.779-.435-1.26-1.8.474-1.245,1.446-1.372,2.037-.266m54.2,4.236c0,.757-.39,1.067-1.032.822-.681-.26-.3-1.364.465-1.364a.558.558,0,0,1,.568.543m-202.1,9.88c0,.72-.878.593-1.131-.161-.089-.266.127-.485.484-.485a.647.647,0,0,1,.647.646m4.89-.237c.492.323.435.4-.306.4-.948,0-1.228.58-.5,1.03.76.468.045.881-1.211.7-1.516-.223-1.521-.29-.12-1.523,1.28-1.131,1.314-1.131,2.139-.6m198.116,11.85c-.161.6-.315.7-.535.343-.372-.6-.037-1.682.431-1.392.18.111.227.584.1,1.051m-1.739,14.225c0,.447-.258.807-.573.807-.373,0-.5-.284-.36-.807.119-.448.375-.808.574-.808s.361.367.361.808m-148.1,16.7a.838.838,0,0,1,.01.8c-.335.541-1.437.053-1.437-.637,0-.646,1.049-.769,1.425-.161m-13.241,33c0,.224-.274.407-.611.407s-.609-.184-.609-.407.274-.407.609-.407.611.184.611.407m74.356,0a.9.9,0,0,1-.027.858c-.274.443-.969-.236-.985-.96-.01-.446.719-.374,1.012.1m-54.255,5.47a.908.908,0,0,1-1.345,1.055c-.472-.292-.485-.462-.039-1,.661-.8,1.1-.808,1.384-.06" transform="translate(-9.88 -1.589)" fill="#f1dfbb" fill-rule="evenodd"/>
            <path id="Path_109" data-name="Path 109" d="M70.812.176a5.79,5.79,0,0,0,1.834,0c.5-.1.09-.176-.917-.176s-1.42.08-.916.176m-3.464.4a3.344,3.344,0,0,0,1.427,0c.393-.1.071-.188-.713-.188s-1.106.084-.713.188M255.069,2.96a11.635,11.635,0,0,0,2.444.558c.336-.012-.213-.281-1.222-.6a11.635,11.635,0,0,0-2.444-.558c-.336.012.213.281,1.222.6m9.371,2.83c1.86.716,2.586.707,1.018-.014a5.8,5.8,0,0,0-1.833-.546c-.336,0,.031.26.808.56m5.3,2.03a4.488,4.488,0,0,0,1.427.583c.223,0-.051-.263-.611-.583a4.513,4.513,0,0,0-1.427-.582c-.223,0,.051.262.611.582m2.081.777a9.515,9.515,0,0,0,2.818,1.294,7.6,7.6,0,0,0-2.7-1.455c-.161,0-.215.069-.123.152m4.6,2.393a88.758,88.758,0,0,1,9.727,7.387c1.294,1.208,2.343,2.042,2.343,1.857,0-.808-9.33-8.145-11.815-9.293-.86-.4-.9-.39-.253.048M136,16.418c-.055.05-4.775.213-10.489.364-12.511.323-17.861.737-20.574,1.579-13.9,4.314-18.041,6.051-23.564,9.905A87.773,87.773,0,0,0,69.125,38.642c-1.1,1.208-2.843,3.11-3.88,4.23C58.647,50,51.878,62.989,47.3,77.3a111.091,111.091,0,0,0-2.7,12.019c-2.271,11.3-2.686,30.211-.827,37.687.139.559.724,3.767,1.3,7.13,1.094,6.38,1.27,7.039,4.578,17.317,4.612,14.323,15.679,33.563,23.795,41.354,9.337,8.967,13.438,11.524,22.323,13.921,3.649.983,19.65.83,20.9-.2a3.435,3.435,0,0,1,2.328-.055,18.077,18.077,0,0,0,2.853.339c.56-.008-.265-.278-1.833-.6a19.58,19.58,0,0,1-3.556-.986,3.007,3.007,0,0,0-1.094-.4,6.59,6.59,0,0,1-1.533-.474,4.61,4.61,0,0,0-1.434-.414,41.988,41.988,0,0,1-6.558-3.1,5.454,5.454,0,0,0-1.476-.695,18.4,18.4,0,0,1-3.056-1.617c-1.131-.719-2.345-1.431-2.68-1.58a20.644,20.644,0,0,1-2.444-1.7c-1.008-.784-2.524-1.89-3.371-2.458a78.981,78.981,0,0,1-11.166-11.256c-.63-.991-1.8-2.621-2.607-3.621a37.064,37.064,0,0,1-2.4-3.344c-.5-.842-1.065-1.439-1.245-1.329s-.3-.024-.271-.3c.09-.822-4.751-8.831-5.173-8.568-.214.135-.263.036-.106-.218a24.122,24.122,0,0,0-2.425-5.869c-1.488-2.975-2.9-5.868-3.121-6.427s-.575-1.337-.773-1.726c-.5-.988-.45-2.347.092-2.347.249,0,.074-.323-.39-.713a7.691,7.691,0,0,1-1.5-3.564c-.808-3.529-2.236-10.58-2.468-12.221-.1-.673-.343-2.231-.548-3.464a100.5,100.5,0,0,1,1.033-34.185c.568-2.333,1.081-4.809,1.142-5.5.162-1.828.97-3.6,1.5-3.271.324.2.324.055.036-.5a7.526,7.526,0,0,1,1.616-4.953c.162-.069.2-.378.086-.683-.207-.54.117-1.408,2.142-5.746a11.327,11.327,0,0,0,.97-2.687,2.4,2.4,0,0,1,.807-1.347,2.467,2.467,0,0,0,.808-1.488.7.7,0,0,1,.636-.752c.376,0,.517.19.346.47s-.113.36.179.18c.629-.39.6-1.455-.04-1.478-.283,0-.193-.2.2-.429s.713-.6.713-.824a16.674,16.674,0,0,1,3.645-5.074c1.067-1.131,1.635-2.077,1.49-2.459-.131-.339-.081-.519.11-.4.344.213,2.921-2.659,4.2-4.687C82.193,49.1,94.286,37.779,95.555,37.779c.243,0,.926-.515,2.21-1.671a17.24,17.24,0,0,1,2.516-1.63c1.843-1,2.866-1.983,2.568-2.461-.092-.151.162-.188.556-.084a4.007,4.007,0,0,0,2.263-.852,7.235,7.235,0,0,1,1.926-1.043c.213,0,.39-.349.39-.776,0-.577.21-.722.821-.563s.763.062.568-.446c-.171-.446-.032-.66.425-.66.374,0,.568.181.43.4-.162.256.094.278.689.065a2.688,2.688,0,0,0,1.341-1.222c.233-.509.646-.792.969-.669a1.368,1.368,0,0,0,1.185-.3c.343-.285.69-.458.771-.383.323.294,2.553-.427,3.008-.97.546-.658,1.387-.807,1-.177-.137.223-.051.407.192.407a.9.9,0,0,0,.679-.611,1.466,1.466,0,0,1,1.311-.616,14.132,14.132,0,0,0,3.115-.646,50.937,50.937,0,0,1,8.555-1.56c2.587-.239,4.688-.73,4.688-1.1,0-.225.343-.2.822.055a1.533,1.533,0,0,0,1.227.19,14.314,14.314,0,0,1,3.15-.407c11.228-.646,11.912-.646,11.919-.116,0,.36.1.386.305.087.381-.569,5.8-.635,5.8-.073,0,.236.266.194.62-.1.506-.421.766-.382,1.425.216.444.4.808.54.808.307,0-.734,2.127-.868,5.086-.323a45.989,45.989,0,0,0,6.086.6,13.685,13.685,0,0,1,4.074.538,2.357,2.357,0,0,0,1.178.375,2.649,2.649,0,0,1,1.313.676,3.068,3.068,0,0,0,2.214.628c.677-.08,1.233.037,1.233.255s.511.4,1.131.4a4.127,4.127,0,0,1,2.015.619,2.526,2.526,0,0,0,1.211.545,4.74,4.74,0,0,1,1.55.413l3.871,1.534c1.456.577,3.95,1.672,5.538,2.424a17.6,17.6,0,0,0,3.5,1.384,2.4,2.4,0,0,1,1.349.808,2.458,2.458,0,0,0,1.157.808,10.542,10.542,0,0,1,3.936,2.024c0,.178.566.556,1.258.842a7.34,7.34,0,0,1,1.731.969,25.588,25.588,0,0,0,2.308,1.632c6.773,4.378,16.038,13.739,21.4,21.629a33.628,33.628,0,0,0,2.23,3.056,7.216,7.216,0,0,1,1,1.592,11.911,11.911,0,0,0,1.472,2.2,21,21,0,0,1,2.1,3.483,24.757,24.757,0,0,0,1.94,3.374,136.277,136.277,0,0,1,6.276,15.6,10.316,10.316,0,0,0,.719,2.271,26.43,26.43,0,0,1,1.1,3.259,18.148,18.148,0,0,0,1.049,3.361,2.039,2.039,0,0,1,.074,1.324c-.129.336-.073.611.125.611.313,0,.737,1.686,1.071,4.277a2.127,2.127,0,0,0,.193.808,3.338,3.338,0,0,1,.2,1.018c.063.56.407,3.494.764,6.519.668,5.657.884,17.225.34,18.066a8.385,8.385,0,0,0-.307,2.714c0,2.051-.074,2.234-.878,2.151a1.087,1.087,0,0,0-1.107.509c-.162.415.048.6.674.613l.9.013-.846.706c-.891.745-1.57,2.526-.97,2.526.2,0,.63-.5.97-1.12s.615-.992.625-.836a55.324,55.324,0,0,1-2.085,9.107,2.48,2.48,0,0,0-.292,1.222c.189.7-4.392,14.81-5.96,18.355a7.427,7.427,0,0,0-.83,2.521c.11.108.365-.241.572-.776s1.511-3.718,2.909-7.085,2.877-7.379,3.3-8.927c.855-3.11.949-3.288,1.542-2.921.264.161.189.782-.208,1.733a4.651,4.651,0,0,0-.422,2.23c.108.414.031.855-.171.982a1.664,1.664,0,0,0-.369,1.2,1.648,1.648,0,0,1-.419,1.229.8.8,0,0,0-.341.737,8.389,8.389,0,0,1-.808,2.448,10.494,10.494,0,0,0-.881,2.668,1.857,1.857,0,0,1-.355,1.086c-.2.213-1.589,3.129-3.1,6.483a56.475,56.475,0,0,1-4.526,8.423,12.421,12.421,0,0,0-1.789,2.766.425.425,0,0,1-.407.437.475.475,0,0,0-.414.511,3.486,3.486,0,0,1-1.061,1.509,6.76,6.76,0,0,0-1.433,2c-.284.752-.5.885-.846.537s.023-1.09,1.471-2.956c1.765-2.274,7.6-12.769,7.574-13.654a30.5,30.5,0,0,0-2.483,4.311A79.567,79.567,0,0,1,232.1,191.046c-2.163,2.241-2.551,3.151-.495,1.158.761-.738,1.476-1.182,1.595-.992s-.917,1.245-2.3,2.345-2.263,1.692-1.95,1.319c.819-1-.092-.833-1.006.181-2.88,3.2-17.874,10.183-24.646,11.477-.54.1-.121.127.931.055,1.429-.1,1.864,0,1.713.39-.286.745,12.894.6,14.91-.162,2.846-1.077,6.613-3.606,12.834-8.61,3.4-2.8,7.309-4.413,10-7.905,1.233-1.528,2.38-3.741,3.519-5.119,1.179-1.432,3.162-2.933,4.113-4.525a27.71,27.71,0,0,1,1.737-2.7c3.248-5.371,6.949-8.462,9.461-14.214,2.375-5.4,5.414-8.71,6.353-14.535.722-3.9,2.334-9.487,3.108-12.661,1.907-7.8,2.073-30.115.685-36.474-.367-1.681-1.01-3.657-1.142-4.891a117.932,117.932,0,0,0-5.577-21.527c-.323-.749-1.086-1.867-1.371-2.652-.58-1.6-3.874-10.435-4.479-11.38-.216-.336-1.381-1.885-1.746-2.557-.9-1.656-.523-5.11-3.06-8.567-4.675-6.37-11.075-17.783-16.521-20.4-.8-.369-11.093-7.68-11.829-8.158-3.233-2.439-26.381-4.07-32.43-4.08-1.527-.033-3.3,2.143-4.813,1.911-5.914-.954-52.839-2.182-53.68-1.405M62.334,20.881C50.469,30.57,39.176,46.775,32.815,63.231c-3.254,8.425-8.809,26.893-8.729,29.009.016.407.388-.724.826-2.519,2.384-9.757,6.159-20.7,6.532-18.944.323,1.525-.485,5.425-2.3,11a86.966,86.966,0,0,0-2.6,17.722c.051,1.977.125,1.666.384-1.631,1.092-13.791,8.54-38.515,14.576-48.385,1.94-3.165,2.586-4.375,2.351-4.375a11.774,11.774,0,0,0-1.494,2.139,13.918,13.918,0,0,1-1.7,2.389c-.213.137-.375.366-.356.509a44.649,44.649,0,0,1-2.046,4.436c-1.143,2.3-2.321,4.818-2.615,5.6l-.537,1.425.112-1.631A37.411,37.411,0,0,1,39.606,50c.484-.784,1.482-2.526,2.216-3.871s1.542-2.394,1.8-2.333.346-.076.2-.305a.913.913,0,0,1,.021-.869c.5-.807.969.545.506,1.456-.753,1.467.274.135,3.122-4.052a102.665,102.665,0,0,1,14.63-17c6.5-6.3,6.627-7.347.242-2.139m179.5-.622c.818.906,1.38,1.131.664.268-.251-.3-.333-.666-.186-.807s-.066-.269-.475-.269c-.715,0-.715.027,0,.808m47.057.606a37.414,37.414,0,0,0,2.835,3.506,90.182,90.182,0,0,1,8.738,12.49,3.62,3.62,0,0,0,.9,1.324c.37,0-2.19-4.381-4.765-8.149-2.1-3.084-7.711-9.751-7.711-9.171m-44.416,1.629c1.488,1.536,1.487,1.586-.01,2.239-.908.4-.871.417.4.217s1.617-.013,3.433,1.721c1.116,1.069.495.246-1.377-1.826a46.406,46.406,0,0,0-3.615-3.768c-.116,0,.409.638,1.166,1.419M51.5,33.677a16.371,16.371,0,0,1-2.7,2.88c-.189,0-.213.212-.053.47.174.285.112.361-.161.191s-.839.554-1.456,1.872c-1.343,2.893-2.263,4.1-2.282,3a13.576,13.576,0,0,1,3.394-5.44,6.511,6.511,0,0,0,1.405-1.748c.824-1.6,3.889-5.039,4.052-4.545a11.636,11.636,0,0,1-2.206,3.319m34.49-2.213c-.379.454-.385.611-.027.611.266,0,.369.183.23.407-.315.511-.647.506-1.426-.012-.529-.354-.5-.485.18-1.014,1.026-.784,1.7-.777,1.043.008m-6.14,4.676a5.439,5.439,0,0,1-1.976,1.214c-.677.019-.7.045,1.353-1.584,1.988-1.579,2.529-1.259.625.368m-8.729,1.636a2.476,2.476,0,0,1-1.147.818c-.225,0,.033-.424.572-.939,1.178-1.131,1.617-1.033.575.121m7.538.151c0,.086-.458.244-1.018.351s-1.019.037-1.019-.162.46-.351,1.019-.351,1.018.071,1.018.161m180.532,3.206c2.151,3.464,3.689,5.448,1.973,2.545a44.486,44.486,0,0,0-3.868-5.908,21.674,21.674,0,0,0,1.893,3.363M75.4,39.605c-.278.336-.348.622-.152.637s-.061.192-.57.4a2.349,2.349,0,0,0-1.2,1.094,4.167,4.167,0,0,1-.769,1.225,3.433,3.433,0,0,0-.681,1.018c-.1.284-.323.385-.5.225-.395-.367.711-2.157,2.386-3.862,1.293-1.309,2.424-1.875,1.484-.734m227.384,1.636a18.252,18.252,0,0,0,1.386,3.055c.763,1.455,1.387,2.465,1.387,2.242a18.2,18.2,0,0,0-1.387-3.057c-.762-1.455-1.386-2.465-1.386-2.24m-40.171,5.5a3.518,3.518,0,0,0,.836,1.223c.112,0-.081-.55-.428-1.223a3.523,3.523,0,0,0-.836-1.222c-.113,0,.081.55.428,1.222m44.433,4.486a7.5,7.5,0,0,0,.647,1.629c.263.425.3.3.1-.407a7.462,7.462,0,0,0-.646-1.631c-.263-.425-.294-.3-.105.407M79.063,52.854c0,.225-.275.407-.611.407s-.611-.184-.611-.407.274-.407.611-.407.611.184.611.407m198.042-.2a7.072,7.072,0,0,0,.78,1.834c.43.784.781,1.243.781,1.018a7.018,7.018,0,0,0-.781-1.834c-.429-.784-.78-1.243-.78-1.018m32.617,6.313a4.536,4.536,0,0,0,.349,1.425c.222.513.352.59.352.2a4.48,4.48,0,0,0-.352-1.425c-.22-.513-.349-.591-.349-.2m-249.4,2.659a2.189,2.189,0,0,0-.711,2.007c.213,1.121.041,1.243-.91.647-.646-.413.244-2.637,1.617-4.005,1.018-1.02,1.028.273.01,1.355M34.435,63.513c-.3,1.316-.323,1.327-.578.346-.343-1.321-.031-2.633.5-2.1a2.342,2.342,0,0,1,.081,1.759m276.522-.07a4.455,4.455,0,0,0,.351,1.425c.221.513.351.589.351.2a4.465,4.465,0,0,0-.351-1.426c-.22-.513-.351-.59-.351-.2M57.471,66.56a2.433,2.433,0,0,1-.713.916,2.182,2.182,0,0,0-.714,1.263.85.85,0,0,1-.713.744c-.392.074-.713-.059-.713-.3a.407.407,0,0,1,.368-.436c.2,0,.56-.552.794-1.222.357-1.025,1.691-1.779,1.691-.97m254.3.151c.021,1.059.662,2.8.677,1.833a4.763,4.763,0,0,0-.34-1.629c-.213-.5-.345-.577-.337-.2m.815,3.259c.021,1.058.663,2.8.677,1.833a4.781,4.781,0,0,0-.338-1.629c-.214-.5-.345-.577-.339-.2m-257.332.454a.546.546,0,0,1-.192.745.862.862,0,0,0-.189,1.031.981.981,0,0,1-.346,1.2,2.306,2.306,0,0,0-.779,1.23,1.3,1.3,0,0,1-.627.931c-.631.21.437-3.967,1.122-4.39a.55.55,0,0,0,.2-.748c-.161-.25-.1-.453.127-.453a.955.955,0,0,1,.687.453M249.367,77.5c0,.336-.184.611-.407.611s-.407-.274-.407-.611.184-.611.407-.611.407.274.407.611M52.44,79.2c-.544.545-1.1-.375-.591-.985.476-.575.543-.569.666.067a1.3,1.3,0,0,1-.074.918m263.023,4.614c0,.784.084,1.1.186.713a3.364,3.364,0,0,0,0-1.425c-.1-.393-.186-.072-.186.713m-63.027,2.064a3.7,3.7,0,0,1,.485,1.94c-.129.538-.254.467-.582-.333-1.159-2.832-1.093-3.908.1-1.6m63.435,1.194c0,.784.084,1.1.186.713a3.307,3.307,0,0,0,0-1.425c-.1-.393-.186-.071-.186.713m.411,2.852c0,.784.084,1.106.187.713a3.335,3.335,0,0,0,0-1.425c-.1-.393-.187-.073-.187.713m.407,3.258c0,.784.084,1.106.186.714a3.369,3.369,0,0,0,0-1.426c-.1-.392-.186-.073-.186.713M23.133,98.3a95.171,95.171,0,0,0-.626,13.853l.078,8.533.26-10.183c.143-5.6.484-11.512.769-13.135a18.208,18.208,0,0,0,.364-3.666,17.54,17.54,0,0,0-.846,4.6M317.1,96.863c0,.784.084,1.1.186.713a3.369,3.369,0,0,0,0-1.426c-.1-.392-.186-.071-.186.714m-27.28,3.258c0,1.008.081,1.421.178.916a5.839,5.839,0,0,0,0-1.833c-.1-.5-.178-.092-.178.916m27.7.2c0,.9.087,1.216.186.708a4.459,4.459,0,0,0-.008-1.629c-.1-.39-.182.024-.178.921m-38.7,3.251c0,1.12.082,1.531.174.912a7.27,7.27,0,0,0,0-2.037c-.1-.5-.173,0-.17,1.131M317.94,104.6c0,1.232.076,1.736.17,1.121a9.124,9.124,0,0,0,0-2.241c-.094-.616-.17-.113-.17,1.12M26.248,107.041c0,2.352.068,3.316.151,2.139a37.061,37.061,0,0,0,0-4.277c-.082-1.177-.151-.213-.151,2.138m263.961-1.833c0,.9.087,1.216.186.707a4.467,4.467,0,0,0-.008-1.631c-.1-.39-.181.025-.178.922m-32.317,1.731a.44.44,0,0,1-.36.506l-.018,0c-.225,0-.4-.594-.38-1.324.027-1.3.677-.606.758.808m60.462,3.17c0,1.568.074,2.159.162,1.316a15.333,15.333,0,0,0,0-2.851c-.09-.724-.162-.033-.162,1.535m-39.091,2.444c0,2.688.066,3.735.145,2.328s.08-3.61,0-4.89-.145-.126-.145,2.562m-20.6,0c.839,7.206.152,23.6-1.2,28.62-.469,1.742-1.455,2.525-1.033.808,1.492-5.971,2.574-20.431,1.883-25.172-.485-3.318-.727-8.633-.378-8.257a18.559,18.559,0,0,1,.73,3.994m31.959-2.24c0,1.007.079,1.421.176.916a5.835,5.835,0,0,0,0-1.833c-.1-.5-.176-.092-.176.916M26.259,118.652c0,3.138.065,4.365.142,2.734s.078-4.2,0-5.7-.142-.162-.14,2.97m292.5-.808c0,1.568.074,2.16.162,1.317a15.192,15.192,0,0,0,0-2.852c-.089-.724-.162-.032-.162,1.535m-28.126,3.668c0,1.345.078,1.844.162,1.112a10.84,10.84,0,0,0,0-2.444c-.092-.613-.162-.013-.162,1.332m-11.83.611c0,1.008.079,1.421.176.916a5.837,5.837,0,0,0,0-1.833c-.1-.5-.176-.092-.176.916M22.968,123.548c0,1.567.074,2.159.162,1.316a15.361,15.361,0,0,0,0-2.854c-.09-.722-.162-.03-.162,1.538m295.38,1.425c0,1.455.074,2.053.162,1.324a12.981,12.981,0,0,0,0-2.649c-.089-.728-.162-.131-.162,1.324M26.616,126.6c0,1.007.08,1.421.176.916a5.79,5.79,0,0,0,0-1.834c-.1-.5-.176-.092-.176.917m-3.254,1.833c0,1.122.082,1.531.176.912a7.27,7.27,0,0,0,0-2.037c-.1-.5-.173,0-.17,1.131m266.848-.407c0,.9.088,1.216.186.708a4.468,4.468,0,0,0-.008-1.631c-.1-.39-.181.026-.178.921m-240.2-.751c-.149.148-.059.519.194.824.647.782.174,1.093-1.163.754l-1.131-.286.961-.781c.9-.73,1.74-1.106,1.147-.513m212.808.058c0,.63-.989,1.305-1.915,1.305-.634,0-.928-.232-.906-.714.019-.425.115-.507.238-.2.286.71.952.639.952-.1,0-.339.362-.611.808-.611s.808.147.808.323m55.105,2.321c0,.9.087,1.216.184.708a4.464,4.464,0,0,0,0-1.63c-.1-.39-.182.025-.178.922m-290.9,1.222c0,.9.089,1.216.186.708a4.459,4.459,0,0,0-.008-1.629c-.1-.39-.181.024-.178.921m-3.333.844c-.066,2.12,2.645,15.148,3.071,14.728a27.027,27.027,0,0,0-.868-4.471c-.571-2.367-1.294-5.923-1.6-7.9s-.577-3.039-.6-2.352m293.807.992c0,.784.083,1.1.186.714a3.368,3.368,0,0,0,0-1.426c-.1-.392-.186-.071-.186.713m-290.086,1.83c0,.9.088,1.216.186.708a4.468,4.468,0,0,0-.008-1.631c-.1-.39-.181.024-.178.921m228.285-1.062c-.124.2.049.47.383.6.368.143.608,0,.608-.365,0-.66-.637-.808-.992-.235m28.013-.1c.149.147.06.518-.192.824-.366.44-.323.5.207.3.761-.292.913-1.392.192-1.392-.262,0-.354.12-.207.268m-21.862.413c-.15.151,0,.7.342,1.21.512.784.519.9.032.714-.984-.378-1.272-2.2-.349-2.2.137,0,.124.123-.025.274m55.242,2.375c0,.9.089,1.216.186.708a4.464,4.464,0,0,0-.008-1.63c-.1-.39-.181.026-.178.922M27.81,137.4a15.668,15.668,0,0,0,.308,2.852c.444,2.145.485.218.045-2.241-.245-1.374-.333-1.527-.353-.611m233.378,1.862c0,1.131-.06,1.192-.634.618-.525-.524-.543-.738-.1-1.237.722-.818.736-.808.736.619m55.513.583c0,.9.087,1.216.186.707a4.508,4.508,0,0,0-.008-1.631c-.1-.39-.183.025-.178.922m-62.181.509a10.152,10.152,0,0,0-.472,1.94c-.333,1.922.667.969,1.174-1.131.249-1.022-.229-1.574-.7-.808m61.775,3.359c0,1.008.08,1.421.176.916a5.785,5.785,0,0,0,0-1.833c-.1-.5-.176-.092-.176.916m-59.668,2.038c-.646,2.63-1.2,2.993-.913.593.323-2.688.523-3.258.983-2.8.229.229.2,1.088-.07,2.206m-227.592-1.02a7.332,7.332,0,0,0,.323,1.834c.257.807.323.848.323.2a7.373,7.373,0,0,0-.323-1.834c-.259-.808-.323-.848-.323-.2m286.844,2.444c0,.9.088,1.216.185.707a4.429,4.429,0,0,0-.007-1.631c-.1-.39-.181.024-.176.922M27.362,148.835c-.252,2.67,10.252,30.755,11.153,29.846a30.318,30.318,0,0,0-2.1-4.85,216.692,216.692,0,0,1-8.567-24.018c-.241-.784-.458-1.227-.485-.983m287.8,2.2a7.021,7.021,0,0,0-.095,2.281c.1.105.323-.752.468-1.907a7.358,7.358,0,0,0,.1-2.281c-.1-.1-.311.756-.469,1.907M31.044,153.488a4.455,4.455,0,0,0,.351,1.425c.22.513.349.59.349.2a4.476,4.476,0,0,0-.349-1.425c-.221-.513-.351-.591-.351-.2M314.2,156.594a11.417,11.417,0,0,0-.323,2.868,7.747,7.747,0,0,0,.68-2.513,10.785,10.785,0,0,0,.323-2.867,7.316,7.316,0,0,0-.68,2.512M67.85,159.989c.9,1.733.761,2.089-.2.521-.832-1.364-.961-1.722-.621-1.722a3.56,3.56,0,0,1,.808,1.2M310.574,170.5a24.76,24.76,0,0,0-1.144,4.085,20.9,20.9,0,0,0,1.455-3.772,23.173,23.173,0,0,0,1.144-4.084,19.309,19.309,0,0,0-1.455,3.771M35.9,167.136a4.47,4.47,0,0,0,.583,1.425c.323.561.582.836.582.612a4.5,4.5,0,0,0-.582-1.426c-.323-.56-.583-.836-.583-.611m215.6,1.64c.22,1.154-.088,1.521-.872,1.036-.429-.266-.428-.485.017-1.194.669-1.07.619-1.08.856.161M37.923,171.95c-.042,1.478,9.625,18.379,10.992,19.235.272.162-.558-1.194-1.841-3.025a111.358,111.358,0,0,1-5.741-9.933c-1.874-3.633-3.412-6.453-3.417-6.27m269.775,6.6c-.684,1.5-.552,1.819.186.456.344-.637.551-1.233.458-1.325s-.382.3-.647.869m-46.1,1.408c-.458.9-.738,1.631-.627,1.631a5.765,5.765,0,0,0,1.036-1.631c.458-.9.74-1.629.627-1.629a5.75,5.75,0,0,0-1.034,1.629m-222.046.808a5.737,5.737,0,0,0,1.036,1.629c.112,0-.171-.734-.627-1.629a5.733,5.733,0,0,0-1.036-1.631c-.112,0,.171.734.627,1.631m265.445,2.7a59.448,59.448,0,0,1-5.657,7.029c-3.294,3.506-3.371,3.62-.722,1.068a48.391,48.391,0,0,0,7.777-9.634c1.474-2.623.684-1.757-1.4,1.537M41.01,183.325a47.288,47.288,0,0,0,3.7,5.6c.119,0-.057-.413-.386-.916s-1.193-1.88-1.916-3.055a11.3,11.3,0,0,0-1.508-2.138c-.106,0-.057.228.107.509m155.476.382a1.158,1.158,0,0,0,.647.646c.3.1.39-.088.236-.485-.284-.74-1.131-.9-.883-.162m38.342,5.834c-.4.552-.9,1.012-1.109,1.018s.053-.446.581-1.006c1.222-1.293,1.469-1.306.529-.012m6.8-.037a2.145,2.145,0,0,1-.611.66c-.5.416-.611.389-.611-.153a.647.647,0,0,1,.611-.661c.336,0,.611.07.611.154m-195.263,2.1c.807,1.192,6.748,8.129,7.658,8.955.247.225,1.527,1.416,2.848,2.647s.485.223-1.865-2.242-5.246-5.675-6.444-7.13c-2.6-3.155-3.345-3.912-2.2-2.233m3.778,1.317c.485.615,2.284,2.747,4,4.752s3.765,4.418,4.548,5.379a7.58,7.58,0,0,0,1.762,1.765c.186.01-.425-.852-1.355-1.916s-3.439-4-5.574-6.519-3.966-4.583-4.072-4.583.2.5.687,1.12m214.069,1.019-1.2,1.324,1.324-1.2a10.279,10.279,0,0,0,1.324-1.324c0-.315-.336-.037-1.455,1.2m-30.328-.558c0,.2-.365.456-.808.574-.529.139-.807.013-.807-.36,0-.315.365-.574.807-.574s.808.161.808.36m25.454,5.853-3.251,3.362,3.363-3.25c3.121-3.018,3.548-3.472,3.251-3.472-.062,0-1.575,1.513-3.363,3.361m30.261-.684c-1.863,1.219-1.881.992.2,2.587l1.731,1.318-1.564-1.427-1.563-1.427,1.232-.637a5.1,5.1,0,0,0,1.484-1.047c.346-.56.228-.511-1.525.637m-61.211,1.388c-.105.162-.646.219-1.212.111s-.939-.333-.834-.5.646-.219,1.212-.111.938.334.834.5m-4.688,2.64c0,.121-.286.22-.635.22s-.53-.17-.4-.378a.469.469,0,0,0-.181-.636.946.946,0,0,1-.414-.715c0-.254.367-.066.808.415a3.922,3.922,0,0,1,.808,1.1m20.766.932-2.637,2.748,2.748-2.637c1.513-1.455,2.748-2.688,2.748-2.748,0-.3-.415.082-2.864,2.637m-136.486-.875c.9.361,1.546.808,1.434.982-.283.457-1.445.092-2.646-.833-1.249-.962-.923-1,1.212-.149m117.42,1c-.687.646-.885.691-.885.22a1.369,1.369,0,0,1,.709-1c1.075-.6,1.177-.148.178.784m66.338-1.093a10.427,10.427,0,0,0,1.94,1.681c1.063.808,3.026,2.508,4.364,3.787,1.387,1.331,1.93,1.715,1.27.9a23.471,23.471,0,0,0-2.627-2.664,28.855,28.855,0,0,0-4.938-3.7m-179.261,2.247c0,.2-.365.456-.808.572s-.807.06-.807-.126.323-.424.713-.526.76-.207.808-.235.1.115.1.314m-51.514.863a2.627,2.627,0,0,1,.375.984.718.718,0,0,0,.515.544c.808.268.592-.514-.375-1.363-.537-.47-.739-.536-.516-.162m156.631,1.018c0,.358-.37.612-.892.612-.871,0-.875-.013-.1-.6.992-.752.994-.752.994-.013m-94.522.3c0,.174.734.323,1.631.323a4.28,4.28,0,0,0,1.63-.162,4.493,4.493,0,0,0-1.63-.323c-.9-.086-1.631-.013-1.631.162m71.621.21c1.41.081,3.61.079,4.89,0s.126-.145-2.562-.145-3.736.066-2.328.145m-67.243.393a5.842,5.842,0,0,0,1.834,0c.5-.1.092-.176-.917-.176s-1.42.079-.916.176m3.3.224c.162.162,11.665.26,25.54.2l25.237-.1-25.54-.2c-14.05-.113-25.407-.065-25.237.1m54.16-.21c1.409.079,3.61.079,4.89,0s.126-.145-2.562-.145-3.735.066-2.328.147" transform="translate(-2.576)" fill="#8b4416" fill-rule="evenodd"/>
            <path id="Path_110" data-name="Path 110" d="M159.621,22.5c0,.192-.962.282-2.138.2-1.664-.117-1.94-.062-1.223.251.5.221.917.59.917.821,0,.569-.537.53-1.193-.089-.43-.407-.577-.407-.726,0-.12.323-.56.415-1.235.245a1.293,1.293,0,0,0-1.558.434c-.455.623-.537.566-.784-.552a2.051,2.051,0,0,0-3.474-.63c-.38.458-.646.5-1.05.162a.93.93,0,0,0-.97-.185c-1.169.723.26,3.265,2.035,3.621.662.133,1.208.44,1.208.683s-.184.323-.407.189-.407-.043-.407.212-.823-.323-1.827-1.293a6.863,6.863,0,0,1-1.833-2.4c0-.658-5.082-.822-6.09-.2-.867.536-.485,1.517.462,1.213.852-.27.86-.249.192.42-.808.808-2.12.144-1.733-.866.333-.871-.582-.632-1.417.37-.646.784-.767.808-.779.2-.016-.907-.828-.944-.828-.039,0,.624-.057.624-.756-.01-.675-.609-.808-.617-1.272-.063-.647.784-1.278.808-.981.041.161-.43,0-.521-.66-.351a1.712,1.712,0,0,0-1.077.739c-.113.292-.558.415-1.046.288a1.26,1.26,0,0,0-1.4.53c-.3.413-.551.539-.551.279s-.274-.367-.608-.239-.5.415-.359.647c.162.263-.016.261-.517,0a1.282,1.282,0,0,0-1.554.161,3.3,3.3,0,0,1-1.617.581c-.69,0-.73.075-.228.4.367.236.417.4.126.4a.96.96,0,0,1-.742-.407c-.161-.254-.666-.092-1.31.413a2.3,2.3,0,0,1-1.908.592c-.562-.162-.676-.115-.336.124.627.438-.485,1.075-3.01,1.713a9.1,9.1,0,0,0-2.647,1.151,22.22,22.22,0,0,1-2.5,1.518c-.839.436-1.527.934-1.527,1.107a.261.261,0,0,1-.25.271.3.3,0,0,1-.057,0c-.84-.133-1.324.108-1.324.66a.6.6,0,0,1-.587.611,11.974,11.974,0,0,0-4.752,2.892A5.2,5.2,0,0,1,99.669,40.5a14.064,14.064,0,0,0-4.487,3.348,6.939,6.939,0,0,1-1.872,1.527A97.421,97.421,0,0,0,84.5,54.635c-.277.485-.172.546.509.323.507-.162.858-.1.858.162s-.137.413-.305.386c-.8-.126-.969.1-.509.66.351.421.366.611.05.611a.436.436,0,0,1-.458-.407c0-.225-.274-.407-.611-.407-.579,0-.668.182-.784,1.631a.558.558,0,0,1-.594.521.5.5,0,0,1-.052-.006c-.323-.051-1.038.544-1.572,1.323a35.488,35.488,0,0,1-2.783,3.354c-2.682,2.86-3.349,3.919-3.568,5.657a2.987,2.987,0,0,1-1.1,2.184c-2.3,1.552-2.6,1.94-2.1,2.759a1.423,1.423,0,0,1,.152,1.294c-.255.413-.36.405-.511-.037-.105-.305-.6.362-1.1,1.482s-1.194,2.67-1.547,3.445c-.454,1-.5,1.455-.174,1.561.663.222.577.9-.113.9-.323,0-.7.583-.861,1.324a5.648,5.648,0,0,1-.691,1.827,2.121,2.121,0,0,0-.139,1.563c.162.646.111.961-.13.808-.593-.367-.784.143-1.693,4.518-.458,2.206-.916,4.332-1.018,4.723-1.634,6.261-1.711,10.083-.2,10.083.454,0,.828.184.828.407s.274.407.611.407.611.184.611.407c0,.632-.869.484-1.778-.305-.448-.393-.689-.5-.533-.231a.554.554,0,0,1-.154.748c-.305.189-.3.43.016.808.356.429.275.5-.388.323-.792-.207-.838-.043-.866,2.985-.017,1.762-.037,3.938-.049,4.835-.052,4.489.043,5.078.789,4.822.677-.235.677-.217,0,.323-.828.658-.4,6.726.511,7.29.268.162.323.406.118.534-.459.282-.162,3.131.323,3.131.194,0,.252.5.129,1.12-.307,1.542.446,3.416,1.249,3.107.343-.131.624-.051.624.178a3.5,3.5,0,0,0,.228,1.01,1.236,1.236,0,0,1-.348,1.166c-.625.625-.245,2.382.514,2.382.231,0,.42.286.42.633s.162.534.369.407a.919.919,0,0,0,.182-.94c-.189-.722,1.92-1.025,2.576-.368.149.149.744-.029,1.323-.4s.835-.436.574-.161a1.184,1.184,0,0,0-.244,1.118c.18.469.031.544-.646.323-1.1-.351-1.529.558-.884,1.883.44.906.432.914-.173.162a2.976,2.976,0,0,1-.634-1.527c0-1.008-.278-.935-1.895.484-1.378,1.209-1.388,1.379-.076,1.25.739-.073,1.4.68.97,1.108-.145.145-.458,0-.691-.333-.359-.507-.39-.5-.213.063a1.128,1.128,0,0,1-.161,1.028c-.217.215.3.3,1.255.211.892-.086,1.616.024,1.616.245,0,.5-1.218,1.548-1.228,1.059,0-.2-.174-.089-.38.236-.573.9-.073,1.317,1.239,1.03.736-.162,1.183-.094,1.183.179,0,.243-.323.452-.713.469-.609.024-.595.081.1.38.448.192.608.363.356.378-.3.019-.39.646-.262,1.788.147,1.3.021,1.94-.485,2.444-.646.646-.635.756.1,1.805a20.006,20.006,0,0,1,1.534,2.853c.807,1.879,1.4,2.3,1.115.794-.134-.707.081-1.057.871-1.417.992-.453,1.321-1.455,1.076-3.277a1.778,1.778,0,0,1,1.383-1.7.529.529,0,0,1,.513.511,4.412,4.412,0,0,0,.315,1.222c.178.429.117.714-.161.714s-.452-.367-.452-.808-.181-.808-.4-.808-.359.94-.305,2.134-.085,2.159-.312,2.193c-1.883.282-2.777,1.072-1.731,1.534.375.162.323.357-.172.724-.632.462-.622.613.129,2.089s.849,1.541,1.38.837c.314-.413.575-.559.583-.323a1.544,1.544,0,0,1-.465.907c-.366.365-.207.983.674,2.626,1.425,2.662,1.277,2.5,1.915,2.1.808-.514,2.777-.421,2.777.133a.971.971,0,0,1-.407.737c-.225.137-.407.057-.407-.181,0-.528-.417-.542-1.208-.042-.515.323-.485.589.162,1.93.752,1.527.768,1.537,1.065.534.323-1.082.36-1.069.6.194a1.112,1.112,0,0,1-.278,1.068c-.29.18-.294.348-.009.524.961.595,1.745-.941,1.032-2.027-.364-.554-.53-1.131-.37-1.293.333-.333,1.154.969,1.341,2.124.178,1.1.5,1.324.925.637.2-.323.484-.46.646-.3.429.428-.646,1.525-1.487,1.525-1.083,0-1.332.687-.621,1.7S83,178.877,83,178.03c0-.308.366-.658.808-.774a2.623,2.623,0,0,1,.808-.147c0,.037.171.66.38,1.388.431,1.508-.035,1.778-.7.4-.352-.73-.448-.771-.469-.2-.018.45-.367.724-.946.745-.5.018-.687.124-.407.237a.855.855,0,0,1,.509.72,2.4,2.4,0,0,0,.808,1.251c.595.538.808.588.808.186,0-.44.1-.45.506-.047s.4.57,0,.818c-.726.447,1.75,3.729,2.814,3.729.6,0,.747.192.568.756s.431,1.35,2.486,3.159c1.5,1.318,3.018,2.733,3.371,3.139a52.536,52.536,0,0,0,6.223,4.849,10.137,10.137,0,0,0,2.573,1.37c.558.141,1.014.413,1.014.607,0,.777,2.439,1.68,2.7,1,.133-.343.4-.625.6-.625.511,0,.456,1.124-.064,1.294-.236.079,1.235,1.01,3.267,2.07,3.694,1.927,3.7,1.927,3.424.847-.251-1-.194-1.057.7-.777a10.92,10.92,0,0,0,1.995.384c.981.076,1.255,1.09.382,1.405-.205.074-.1.407.231.738s.789.485,1.016.351.41-.059.41.178a.436.436,0,0,0,.434.432c.237,0,.375-.4.305-.879s.1-.957.382-1.053.509.024.509.266.323.448.713.454c.668.012.669.037.016.417a.9.9,0,0,0-.466,1.008c.291.76.957.784.957.037s1.427-1.1,2-.53c.323.323.443.29.443-.1,0-.336.3-.456.808-.323.448.118.808.047.808-.162s-.294-.368-.646-.368c-.861,0-3.512-1.269-3.233-1.547a3.043,3.043,0,0,1,1.237-.323c1.057-.113,1.405.425.511.791-.282.112.023.177.674.142.753-.04,1.252-.323,1.372-.784.1-.4.351-.722.548-.722a.429.429,0,0,0,.361-.47c0-.267-.353-.151-.808.266-.985.891-1.053.537-.162-.829.606-.925.606-1,0-1a.632.632,0,0,1-.658-.6c0-.374.268-.526.713-.4.393.108.162-.066-.509-.39a6.337,6.337,0,0,1-1.995-1.638c-.646-.874-.881-.969-1.425-.554-.36.274-.521.339-.356.144s-.019-.616-.407-.937c-.661-.544-.663-.568,0-.363a.877.877,0,0,0,.957-.2c.423-.685-.1-.868-1.046-.362s-1.751.172-.875-.37c.7-.435-.485-1.666-1.6-1.666-.431,0-.785-.184-.785-.407s.268-.407.6-.407a1.477,1.477,0,0,0,1.032-.808,1.5,1.5,0,0,1,1.1-.808c.595,0,.591.077-.04.774-.459.508-.552.869-.267,1.043.239.147.434-.015.434-.36s.425-.734.942-.863c.891-.223,3.408-2.511,3.083-2.8-.728-.646-2.129-.7-1.6-.055.511.614.511.695,0,.622-1.39-.2-1.733-.019-1.193.633.629.759.351,1.121-.583.761a.683.683,0,0,1-.485-.824c.3-.785-.178-.7-.823.162-.5.646-.543.656-.554.027a1.165,1.165,0,0,0-.828-.944c-.447-.143-.807-.43-.807-.639,0-.484.5-.484,1.842.031.826.313,1.039.29.91-.1-.094-.282-.677-.6-1.294-.716l-1.131-.2L119,187.434l1.069-1.151,2.843,1.873a10.538,10.538,0,0,1,2.844,2.315c0,.243.257.343.574.221s.9.217,1.319.771c.86,1.144,1.365,1.272,1.365.343a1.03,1.03,0,0,0-.807-.86,1.691,1.691,0,0,1-1.056-1.011c-.149-.472-.484-.709-.824-.58-.842.323-4.215-1.857-4.231-2.733-.01-.53-.225-.675-.761-.5a3.413,3.413,0,0,1-2.29-.808c-.846-.575-1.629-.955-1.737-.847s-.614.041-1.124-.161a1.274,1.274,0,0,0-1.371.1c-.324.323-.516.263-.7-.213-.485-1.284.233-1.577,1.684-.679,1.969,1.216,1.732.768-.4-.767-1.147-.822-2.071-1.2-2.548-1.049-.525.17-.591.131-.224-.134s-.121-.881-1.922-2.3C96.165,167.84,85.081,147.237,83.5,128.689a5.024,5.024,0,0,0-.852-2.954c-.354-.282-.433-.511-.18-.511.333,0,.44-2.628.383-9.451a52.523,52.523,0,0,1,.178-8.244c.22,1.024.265.931.307-.634a56.241,56.241,0,0,1,.674-5.679,19.122,19.122,0,0,0,.383-4.469c-.131-.343-.1-.484.065-.323s.548-.662.848-1.846a78.759,78.759,0,0,1,3.825-11.624A18.347,18.347,0,0,0,90.306,80a.408.408,0,0,1,.407-.407c.225,0,.407-.285.407-.634a11.5,11.5,0,0,1,1.733-3.107c.953-1.361,2.121-3.047,2.6-3.747s2.263-2.909,3.981-4.894c2.263-2.622,3.048-3.831,2.874-4.379-.137-.434-.043-.76.22-.76s.324.229.175.511a28.347,28.347,0,0,0,3.54-3.233c2.1-2.061,4.687-4.444,5.732-5.3a9.22,9.22,0,0,0,1.989-1.956c.115-.556,1.6-1.564,1.887-1.28.378.378,3.805-2.646,3.52-3.107-.161-.252-.063-.3.227-.123.616.382,5.81-3.007,5.465-3.556-.137-.222-.065-.29.161-.151.589.364,2.959-.582,4.116-1.642a3.191,3.191,0,0,1,1.246-.84,7.326,7.326,0,0,0,1.834-.622,3.515,3.515,0,0,1,1.98-.43.5.5,0,0,0,.669-.139,32.783,32.783,0,0,1,7.8-3.586,6.023,6.023,0,0,0,2-.756c.433-.349.617-.338.745.042s.3.372.741-.065a25.961,25.961,0,0,1,8.266-1.1c.3.058.458-.045.344-.228a25.328,25.328,0,0,1,5.919-.21c5.931.12,6.12.1,5.914-.683-.15-.577-.045-.742.367-.583.351.135.485.521.333.989-.209.658-.023.768,1.312.781a28.344,28.344,0,0,1,4.662.752,24.251,24.251,0,0,0,4.342.7c.679-.021,1.165.076,1.078.215-.266.428,4.227,1.662,5.072,1.393a.988.988,0,0,1,1.1.24c.217.351.082.407-.462.2-.422-.161-.647-.161-.485-.01a11.47,11.47,0,0,0,2.228.991c1.069.389,2.909,1.094,4.083,1.568s2.138.686,2.138.469.274-.286.611-.162.611.031.611-.216.277-.452.614-.452c.5,0,.526.143.131.775a1.155,1.155,0,0,1-1.131.593,32.672,32.672,0,0,0,4.041,2.156,36.158,36.158,0,0,1,4.821,2.666.691.691,0,0,0,.611.323,6.087,6.087,0,0,1,1.975,1.324c.824.728,2.292,1.912,3.259,2.632,4.17,3.107,15.356,14.915,15.422,16.274A8.619,8.619,0,0,0,225,69.208c1.231,1.377,1.308,1.417.495.263-.53-.752-1.146-1.658-1.371-2.016s-.912-1.373-1.528-2.263a6.277,6.277,0,0,1-1.131-2.467q0-.851-.323-.353c-.281.443-1.707-.639-1.707-1.293,0-1.319,3,.828,3.04,2.171a1.569,1.569,0,0,0,1.881,1.175l.117-.032c.97-.372.834-1.2-.149-.892-.671.213-.808.073-.808-.787,0-1.327.429-1.321,1.779.027.688.687,1.081.871,1.1.509a10.911,10.911,0,0,1,.894-4.492.517.517,0,0,0,.131-.713c-.427-.691.411-.54,1.01.181.43.519.43.612,0,.51a.628.628,0,0,0-.713.383c-.26.708,1.131.646,2.2-.1a1.954,1.954,0,0,1,1.587-.336c.552.212.655.119.453-.407-.324-.832.069-1.983.566-1.678.2.123.257-.045.13-.372a1.9,1.9,0,0,0-1.218-.844c-1.023-.257-1.378-1.038-.485-1.06.3,0,.21-.24-.228-.573-.5-.38-.591-.646-.28-.842s.249-.515-.235-1.047c-.382-.421-.9-.637-1.147-.485-.707.443-1.472.485-1.472.068,0-.2-.256-.372-.568-.372a.981.981,0,0,1-.808-.627c-.346-.9.9-1.248,1.51-.419a2.638,2.638,0,0,0,1.851.724c.837.024,1.438.284,1.588.688A5.425,5.425,0,0,0,232.454,53c1.114.969,1.34,1.747.646,2.236-.231.161-.008.3.495.305s.916.2.916.437.15.34.333.225.595.178.916.646a22.263,22.263,0,0,0,1.5,1.873,3.522,3.522,0,0,1,.916,1.6c0,.323.2.451.447.3.3-.186.29.021-.035.626-.443.828-.407.879.419.616.558-.178.808-.133.646.12-.137.223.115.5.561.615a1.085,1.085,0,0,1,.808,1.065c0,.469.26.853.577.853s.981.647,1.472,1.456.986,1.355,1.1,1.243c.571-.569-9.1-13.058-13.592-17.563-2.931-2.936-3.718-3.567-4.146-3.306a1.024,1.024,0,0,1-.912-.221c-.484-.341-.46-.376.121-.189,1.17.375.808-.389-.732-1.567-.8-.606-1.719-1-2.054-.869-.407.162-.569.013-.485-.435.12-.674-4.15-3.908-6.91-5.237-.73-.351-1.324-.808-1.324-1.02a6.534,6.534,0,0,0-2.962-1.521,14.042,14.042,0,0,1-2.018-1.069,4.675,4.675,0,0,0-2.314-.886.485.485,0,0,1-.646-.174c-.324-.531-2.84-1.778-6.724-3.322-3.97-1.582-4.447-1.739-3.572-1.177.586.378.622.591.206,1.255-.7,1.12-.981,1-.981-.431s-1.255-2.622-2.066-1.95c-.36.3-.575.237-.75-.217a10.361,10.361,0,0,0-5.189-1.56,3.469,3.469,0,0,1-1.425-.507c-1.94-1.046-3.674-1.455-3.893-.924-.148.362-.284.355-.552-.023-.4-.56-5-1.023-5-.5,0,.181-.539.448-1.2.593a1.9,1.9,0,0,0-1.379.949c-.132.5-.194.446-.228-.2a.848.848,0,0,1,.66-1,.743.743,0,0,1,.124-.016c1.282-.2.97-.857-.484-1.015-.716-.078-1.185-.024-1.039.12.537.537-.508,1.713-1.331,1.5-.448-.119-.7-.4-.552-.647.161-.271-.076-.336-.675-.179-.7.184-.821.127-.47-.222a1.741,1.741,0,0,0,.452-1.1c-.012-.568-.063-.568-.509,0a2.716,2.716,0,0,1-3.089.225.567.567,0,0,0-.8.057.522.522,0,0,0-.067.1c-.239.388-.4.358-.675-.133-.239-.429-.549-.523-.938-.284-.817.5.256,1.778,1.276,1.505.857-.225,1.384.351.7.771-.323.2-.305.376.074.611s.208.41-.567.6c-.6.151-1.1.439-1.1.638s-.323.357-.713.351c-.647-.012-.657-.045-.037-.407a1.037,1.037,0,0,0,.462-1.209c-.26-.992-1.019-1.1-.849-.118a.736.736,0,0,1-.6.847l-.043.006c-.525.106-.663,0-.448-.351,1.046-1.693.283-4.392-.9-3.2-.324.323-.519.323-.716,0-.323-.525-1.041-.591-1.041-.1m-7.333.467c0,.467.58.467,2.036,0,.91-.291.853-.323-.509-.366-.84-.022-1.527.143-1.527.366m9.559.433a3,3,0,0,1-1.24.808c-.657.249-.891.577-.722,1.014.2.53.04.595-.925.364-1.5-.362-1.455-.295-1-1.432.39-.969.39-.969.416-.058.026.949.84,1.325.84.39,0-.289.595-.722,1.324-.96s1.38-.46,1.455-.485,0,.137-.142.375m-10.5,1.094c.053.724-.063.808-.681.472-.78-.419-.936-.86-.465-1.331s1.079-.045,1.146.857m-7.741.1a2.3,2.3,0,0,1-1.552.4c-.989,0-1.154-.1-.691-.4.808-.522,2.564-.522,2.243,0m5.908.432c0,.21-.552.382-1.223.382-1.422,0-1.653-.687-.305-.91,1.062-.174,1.528-.014,1.528.528m19.862-.049a2.481,2.481,0,0,1,.917,1.293c0,.3-.252.189-.6-.268s-.6-.568-.611-.281a.485.485,0,0,1-.448.509c-.265,0-.323-.358-.145-.914.257-.808.215-.852-.38-.357s-.671.462-.671-.105c0-.871.8-.816,1.94.131m10.287-.383c-.8.516-1.629.516-1.629,0,0-.225.5-.4,1.12-.4.873,0,.986.094.509.4m-24.994.629c.324.861-.221,1.324-.69.581-.5-.789-.485-1.209.029-1.209.231,0,.529.283.66.629m21.728.188c0,.225-.078.407-.17.407a5.036,5.036,0,0,0-.9.282c-.655.252-.669.21-.136-.391.681-.766,1.209-.9,1.209-.3m-20.151,1.73c.023,1.308-.46,1.093-.73-.323-.126-.66-.032-.986.257-.889.251.083.464.629.475,1.21m22.129-.673c.616.432.808.8.54,1.061s-.695.107-1.257-.454c-1.388-1.388-.941-1.766.717-.6m7.493.628c-.146.558-.073.781.2.613.236-.146.534,0,.66.339s.023.562-.263.507-.475.323-.448.922a1.674,1.674,0,0,1-.358,1.278c-.568.366,0,1.147,1.166,1.589.538.2.979.58.979.834s-.29.351-.646.213a3.7,3.7,0,0,0-.97-.247c-.181,0-.421-.367-.539-.808a1.084,1.084,0,0,0-1.066-.808c-.468,0-.853-.184-.853-.407s.367-.407.807-.407c.923,0,1.045-.422.324-1.139-.382-.382-.382-.6,0-.978a2.321,2.321,0,0,0,.484-1.425c0-.516.162-.938.369-.938s.266.4.139.879m-15.991,1.844c0,.1-.29-.1-.647-.458-.724-.722-1.563-.444-1.236.411a.682.682,0,0,1-.178.8c-.881.543-.853-1.119.032-2.063l.93-.989.548,1.057a6.708,6.708,0,0,1,.548,1.243m11.225-1.222a2.35,2.35,0,0,0,.253,1.639c.354.425.305.485-.216.288-.692-.266-.76-.425-.76-1.8,0-1.131.037-1.222.507-1.222.228,0,.323.484.217,1.094m2.22.127c0,.95-.515,1.055-1.19.243-.363-.44-.351-.621.052-.783.946-.38,1.131-.288,1.131.54m1.222-.2c0,.336-.184.611-.407.611s-.407-.274-.407-.611.184-.611.407-.611.407.274.407.611m-11,.116c0,.359-2.424,1.875-2.645,1.654s.769-1.419,1.421-1.672c.892-.347,1.222-.343,1.222.018m-45.7,2.228c-1.189.444-1.641-.016-.832-.846.624-.639.749-.647,1.176-.088.386.507.323.687-.344.934m2.871-1.364a.621.621,0,0,1,.28.808c-.2.323-.452.284-.867-.129-.977-.977-.591-1.429.587-.683m21.644-.058c0,.17-.366.538-.808.82-.685.429-.808.407-.808-.131,0-.351.182-.526.407-.387s.407.058.407-.179a.422.422,0,0,1,.407-.43.37.37,0,0,1,.407.309m31.52,1.117a1,1,0,0,1-.852.611c-.5,0-.524-.113-.11-.611a1.635,1.635,0,0,1,.852-.612c.189,0,.239.275.11.612m10.361.594c-.358.573-.585.66-.808.305-.252-.407.189-.807,1.2-1.075.057-.016-.12.323-.393.769m-60.1,1.513c-.188,1.145-.123,1.408.282,1.157.344-.213.463-.137.344.217a1.19,1.19,0,0,1-.63.691c-.674.224-1.032-1.378-.522-2.333a1.566,1.566,0,0,0,.162-1.293c-.162-.274-.105-.35.162-.188s.345.871.2,1.757m7.218-1.293c0,.719-1.046.819-1.464.141-.174-.282-.112-.361.152-.2a.507.507,0,0,0,.7-.141c.367-.591.615-.511.615.2m8.216.349c.448.618.555,1.131.313,1.517-.285.447-.368.382-.374-.293a1.241,1.241,0,0,0-.617-1.107c-.336-.129-.612-.426-.612-.655,0-.691.568-.454,1.294.54m37.918.822c-.115.2-.376.058-.582-.308a1.28,1.28,0,0,1-.078-1.145c.348-.561,1,.875.66,1.455m-68.769-1c.127.2,0,.466-.281.581-.39.161-.366.323.1.683.527.411.515.446-.089.252a.867.867,0,0,0-.946.171.457.457,0,0,1-.625.162c-.21-.131-.061-.673.335-1.216.771-1.061,1.146-1.219,1.506-.634m13.378.162c.121.312-.123.551-.6.588-.647.049-.712-.048-.314-.527.6-.719.657-.724.91-.059m65.887.787a2.823,2.823,0,0,0,.674,1.607c.37.41.493.745.272.745s-.6-.412-.844-.916c-.63-1.3-.908-2.792-.472-2.523a1.468,1.468,0,0,1,.368,1.09m-60.575-.585c.116-.29.226-.115.244.39.04,1.154-1.017,1.218-1.315.077-.173-.659-.1-.742.323-.39.4.324.595.311.75-.077m31.422.378c.149.385.139.57-.021.411s-.535-.086-.836.161c-.6.5-.674.346-.3-.63.324-.844.822-.819,1.158.057m4.715.11a1.062,1.062,0,0,1-.979.112c-.22-.137-.045-.376.388-.533.97-.354,1.379-.066.591.421m3.337.149c-.146.818.669.9.969.1.266-.7,1.88-1.153,2.811-.8.808.313.06.946-1.141.955a3.035,3.035,0,0,0-1.65,1c-.889.961-.932.97-1.406.211-.647-1.039-.634-2.541.022-2.313a.757.757,0,0,1,.39.848m6.861.3c.39.73.35.831-.286.708a1.183,1.183,0,0,1-.877-.852c-.189-.986.613-.888,1.165.142m17.907-.468c0,.485-.8,1-1.086.7s.221-1.086.7-1.086a.385.385,0,0,1,.383.383m-5.3,1.733c0,.583-.72.351-.97-.315-.446-1.161-.234-1.617.377-.808a3.022,3.022,0,0,1,.6,1.122m-44-.654c0,.719-.877.593-1.131-.162-.089-.266.128-.485.485-.485a.647.647,0,0,1,.646.647m18.743-.035c0,.336-.174.611-.383.611-.513,0-.881-.637-.556-.961.459-.459.939-.28.939.351m2.723-.039c-.341.888.433,1.162.92.324.323-.566.421-.591.431-.107.016.781-1.48,1.769-1.828,1.208-.265-.43.118-2.026.485-2.026.121,0,.116.268-.01.6m-8.108.726c-.251.752-1.392.848-1.392.118a.719.719,0,0,1,.781-.628c.443,0,.708.22.611.511m26.84.228c-.034.444.2.646.66.568.99-.161.891.421-.286,1.689-1.293,1.4-1.309,1.4-1.23-.754.037-1.008-.088-1.834-.278-1.834a.382.382,0,0,0-.346.407c0,.223-.274.408-.611.408s-.611-.17-.611-.379-.323-.444-.713-.527.228-.178,1.377-.21c1.733-.049,2.081.058,2.037.629m-47.138,1.425c.016.181-.162.217-.379.078a1.457,1.457,0,0,1-.378-1.145c.027-.889.666.008.757,1.065m-56.152-.79c-.351.421-.323.674.119,1.038.4.323.662.346.844.055.145-.235.048-.427-.217-.427-.359,0-.352-.162.026-.611.283-.341.323-.611.1-.611a1.487,1.487,0,0,0-.87.558m90.224.087c.739.6.742.629.033.4-.566-.182-.7-.083-.519.382.2.516.095.548-.593.181-.613-.323-.985-.323-1.411.037a1.4,1.4,0,0,1-1.255.221c-1.157-.444-.249-.863,2.216-1.022.292-.018.421-.217.282-.441-.387-.626.362-.485,1.246.236m20.986-.134c.016.279.1,1.024.178,1.655.1.755-.015,1.092-.333.983-.52-.173-.689-3.147-.178-3.147.161,0,.323.228.333.51m6.3.089c.757.572.744.6-.323.611-.73.008-1.122-.2-1.122-.6,0-.771.443-.776,1.455-.013m-78.86.626c0,.223-.274.407-.611.407s-.611-.184-.611-.407.274-.408.611-.408.611.185.611.408m1.4-.036a.447.447,0,0,1-.282.612c-.411.192-.411.286,0,.476.561.26.3.985-.355.985-.225,0-.3-.172-.174-.38a.458.458,0,0,0-.161-.624c-.446-.276-.121-1.441.4-1.441a.789.789,0,0,1,.569.372m54.788.792c-.019.385-.116.462-.231.182a.6.6,0,0,0-.783-.261c-.578.221-.808-.315-.341-.786.433-.433,1.387.175,1.355.865m4.931-.012a4.549,4.549,0,0,0-1.283.937c-.949.947-1.162.957-1.2.052-.019-.427-.115-.507-.238-.2-.286.707-1.766.646-1.766-.078,0-1.146,2.439-1.758,2.862-.719.162.4.415.335,1.018-.246.464-.447.871-.593.97-.344a.485.485,0,0,1-.336.6l-.021.005m17,.244c.583.184.916.121.916-.174,0-.268.277-.188.647.19.539.54.766.563,1.293.131.563-.462.6-.362.364.852a14.436,14.436,0,0,0-.272,1.985c0,.5-.11.519-.627.089-.436-.362-.5-.647-.2-.946.551-.552.551-1.2,0-.861a.97.97,0,0,1-1-.213,1.732,1.732,0,0,0-2.384.566,1.678,1.678,0,0,0-.168.359c-.354.756-.425.537-.425-1.324,0-1.788.094-2.1.47-1.587a3.2,3.2,0,0,0,1.386.936m-73.642-.149c0,.21-.351.383-.781.383a1.048,1.048,0,0,0-.969.511c-.1.279-.323.371-.508.2-.4-.376,1.409-2,1.895-1.7a.811.811,0,0,1,.356.6m10.992-.068c0,.2-.275.469-.611.6-.621.237-.834-.2-.34-.691.39-.39.951-.336.951.092m47.262.933c0,.685-.108.751-.586.353a1.047,1.047,0,0,1-.366-1.065c.307-.8.952-.313.952.713m-35.164-.1a1.6,1.6,0,0,0,.778,1.008c.447.171.428,0-.088-.787-.794-1.213-.97-1.266-.691-.22m13.578-.082c-.533.6-.52.647.135.393a4.885,4.885,0,0,1,.9-.282c.093,0,.171-.184.171-.407,0-.6-.529-.468-1.209.3m26.435.368c.093.082-.525.149-1.373.149-1.317,0-1.47-.089-1.043-.6.458-.551,1.49-.357,2.425.454m2.927.123a.862.862,0,0,0-.194,1.031c.2.517.12.68-.268.552-.3-.1-.619-.781-.7-1.51-.143-1.255-.1-1.294.744-.847.6.323.74.575.419.775M203,36.018c.139.225-.023.407-.361.407a1.107,1.107,0,0,1-.863-.407c-.139-.223.023-.407.361-.407a1.114,1.114,0,0,1,.863.407m7.944,0c0,.225.274.407.611.407.7,0,.82.638.2,1.023a.529.529,0,0,0-.113.737c.661,1.057.467,1.4-.532.931-.533-.248-.969-.6-.969-.781s.181-.217.4-.078.407.162.407.057a4.892,4.892,0,0,1,.282-.94c.236-.629.181-.668-.343-.241-.771.625-1.131.313-.863-.734.213-.808.926-1.111.926-.383m-73.367,1.255a1.6,1.6,0,0,1-1.513.591c-.558-.215-.5-.347.338-.808,1.531-.838,2.122-.73,1.175.217m-20.192.173c-.129.336-.032.611.217.611s.451.3.451.657c0,.5-.189.423-.777-.3-.556-.687-.646-1.046-.305-1.261.646-.415.682-.4.415.3m73.678.691c-.382.38-.6.38-.978,0s-.272-.484.485-.484.869.108.485.484m23.5-.121a.618.618,0,0,1,.284.808c-.177.288-.014.366.458.219.693-.217.692-.2-.01.245-.409.26-.85.369-.981.238s-.485-.031-.793.225c-.951.788-.983.134-.046-.873l.891-.954-.9.235c-.485.127-.894.068-.894-.135,0-.469,1.248-.469,1.987,0m-25.01,1.114c.065.856.038.86-1.7.216-2.207-.817-2.225-1.087-.065-1.087,1.44,0,1.707.131,1.762.871m11.176.161c-.583.36-1.19.146-1.19-.421,0-.485,1.39-.732,1.578-.278.084.2-.09.517-.388.7m5.334.023c0,.2-.275.364-.611.364a.607.607,0,0,1-.612-.6c0-.364.24-.506.612-.364.336.129.611.4.611.6m-98.728.63c-.119.12-.647.074-1.162-.1l-.947-.313,1.018-.26c.939-.239,1.6.162,1.092.669m6.514-.469c-.073.225-.551.469-1.063.544-.543.079-.824-.034-.677-.272a.4.4,0,0,0-.145-.541.4.4,0,0,0-.115-.044c-.282-.1.084-.161.808-.137s1.263.225,1.19.45m15.32.646c-.162.613-.356.683-.969.354-1.131-.6-.985-1.534.2-1.308.713.137.918.39.771.952m2.112-.871c.4.646-.356.8-.915.189-.432-.467-.419-.569.077-.569a1.071,1.071,0,0,1,.838.378m10.183.049c-.386.627.144,1.031.666.507.293-.292.3-.521.023-.691a.506.506,0,0,0-.689.184m66.079.981c-.133.346-.436.629-.676.629-.3,0-.3-.26.021-.85.506-.946,1.034-.766.654.221m11.039.323a1.429,1.429,0,0,1,.511.954c0,.658,1.225,1.353,1.94,1.1.554-.2.722.544.174.769a8.6,8.6,0,0,0-1.471,1.765c-.792,1.131-1.074,1.351-.927.713s.023-.916-.363-.916c-.315,0-.573-.366-.573-.808,0-.924.162-.978,1.208-.415.554.3.808.245.979-.2.207-.54-.2-.789-1.066-.647-.162.027-.306-.4-.306-.946,0-1.116-.609-1.7-1.042-1a.624.624,0,0,0,.278.808c.36.228.39.357.081.362a2.08,2.08,0,0,1-1.116-.63c-.351-.351-.839-.513-1.088-.359-.313.194-.307.01.021-.6.484-.9,1.584-.876,2.765.07m-6.819.1c-.509.613-1.225.485-1.225-.223,0-.21.39-.382.865-.382.719,0,.78.1.36.606m-1.714.647c.485.774.461.808-.31.392-.458-.245-.834-.623-.834-.838,0-.666.593-.436,1.143.446m4.076.907c.6.143.581.21-.126.511-1.028.436-1.834,1.222-1.834,1.789,0,.693-.575.507-1.118-.364-.658-1.054-.228-2.148.726-1.844.519.162.826-.041,1.049-.7.249-.741.345-.791.465-.246a1.236,1.236,0,0,0,.838.853m-88.742-.523c0,.224.356.407.791.407a1.363,1.363,0,0,0,1.043-.407,1.452,1.452,0,0,1,1.144-.375c.6.023.691.106.282.257a4.813,4.813,0,0,0-1.222.753c-.646.556-.748.587-2.01.587a1.2,1.2,0,0,0-1.047.821c-.323,1.025-1.162.593-.887-.459.172-.658-.031-.769-1.39-.769-.875,0-1.592-.162-1.592-.372s.916-.282,2.038-.17c1.314.131,2.036.045,2.036-.239a.426.426,0,0,1,.407-.442.409.409,0,0,1,.407.408m78.6.509c.58.758.205.936-.728.345a.63.63,0,0,1-.265-.836c.162-.263.323-.421.372-.351s.323.45.621.842m-6.231.946c-.217.568-.362.591-.9.14-.583-.485-.574-.563.107-.808.942-.343,1.131-.188.8.67m1.379-.026c-.343.413-.252.6.388.808.46.145.838.433.838.637s-.46.162-1.018-.092-1.019-.6-1.019-.772c0-.757.528-1.571.878-1.355.233.143.206.451-.065.777m-79.263.178c.395.435.647.956.573,1.16s-.571-.153-1.093-.792c-1.055-1.293-.606-1.617.519-.368m85.67,1.086c-.485.484-1.024-.279-.8-1.147l.235-.9.4.9c.221.494.294,1.01.161,1.142m-92.727,1.085c-.343.342-.46.282-.46-.233,0-.664-.429-.866-1.527-.723-.745.1-.622-.681.177-1.131.91-.51,2.533,1.361,1.811,2.085M216.758,43.8c-.129.5-.446.752-.776.626-.366-.141-.568.1-.583.69-.027.889-.033.886-.416-.073a2.477,2.477,0,0,1-.279-1.061,9.3,9.3,0,0,1,2.007-1.007c.147,0,.162.365.049.824m-98.692.162a1.691,1.691,0,0,0-.225,1.427.887.887,0,0,1-1.55.836c-.372-.4-.365-.555.027-.7a.864.864,0,0,0,.511-.765c0-.323.194-.576.43-.576s.323-.185.181-.408.057-.407.434-.407c.552,0,.59.113.194.592m95.4,1.85c-.382.671-.923,1.22-1.2,1.222a.472.472,0,0,0-.511.411c0,.225.274.407.611.407a.612.612,0,0,1,.611.609c0,.336.184.612.407.612a.408.408,0,0,1,.407.407c0,.722-1,.435-2.126-.612a4.093,4.093,0,0,0-1.524-1.018.44.44,0,0,1-.425-.451c0-.249.29-.34.646-.2.412.161.58.063.466-.262a.842.842,0,0,0-.849-.452c-.368.031-.669-.107-.669-.305s.228-.383.509-.411l1.121-.1a1.5,1.5,0,0,1,1.107.556c.4.5.5.5.509.045a3.027,3.027,0,0,1,1.521-1.662,6.469,6.469,0,0,1-.611,1.208m8.121-.915a7.233,7.233,0,0,1-.335,4.24c-.39.323-.535.313-.535-.037,0-.266-.23-.366-.51-.223s-.153-.031.282-.383c.692-.562.7-.646.1-.646-.784,0-.96-.808-.18-.828.282,0,.175-.207-.234-.444-.7-.411-.707-.472-.039-1.211.728-.807,1.351-1.007,1.455-.472M75.517,46.071c-.388,1.01.041,1.149.558.18.251-.467.285-.849.078-.849s-.495.3-.636.669m140.574.859c-.1.615-.2,1.251-.217,1.412-.061.53-1.255-.161-1.255-.73,0-.323-.252-.458-.611-.323-.4.152-.612-.012-.612-.469,0-.529.251-.646,1.029-.506.566.108,1.131.039,1.246-.162.419-.678.6-.344.421.768m-9.621-.485a4.881,4.881,0,0,1-1.348,1.513c-.086.049-.477-.18-.87-.5-.677-.562-.676-.607.041-.887.928-.366,2.177-.435,2.177-.121m11.577.436c.341.889-.112,1.3-.593.541s-.485-1.21-.027-1.21c.2,0,.485.3.621.669m7.435,1.032c-.255.408-.582.743-.725.743s-.359.371-.485.825-.451.776-.738.714-.593.213-.678.615c-.135.611.022.683.969.446.989-.249,1.057-.208.554.323a1.457,1.457,0,0,1-2.289-.3c-.229-.6,1.431-4.042,1.778-3.7.128.128-.019.558-.323.957-.474.61-.419.6.348-.051.632-.54.785-.922.506-1.259-.583-.7-.039-1.051.808-.518.587.366.646.6.266,1.2m-117.605-.243c0,.72-.878.593-1.131-.161-.089-.266.127-.485.484-.485a.647.647,0,0,1,.647.646m100.473.593c-.15,1.294-.646,2.178-.659,1.172a7.769,7.769,0,0,0-.252-1.494c-.18-.671-.072-.916.4-.916s.614.323.507,1.239m-1.582-.016c.061.808-.323,1.061-.834.546-.149-.147-.063-.514.186-.808.579-.7.577-.7.646.268m-110.3.509c0,.742-.082.8-.4.305-.511-.789-.511-1.222,0-1.222.224,0,.4.413.4.916m17.678-.016a1.4,1.4,0,0,1-1.016.323c-.448,0-.71-.171-.579-.382a1.21,1.21,0,0,1,1.014-.323c.429.033.691.2.58.382m104.964.323c0,.448-.229.822-.511.83s-.074.255.456.55c.808.445.857.576.305.787-.364.139-.66.074-.66-.143a.4.4,0,0,0-.407-.394c-.223,0-.407.278-.407.615,0,.485.358.572,1.656.407,1.5-.189,1.634-.134,1.405.591-.2.646-.068.789.687.756,2.51-.108,3.587.1,3.587.687,0,.716-.2.752-1.209.21-.563-.3-.808-.241-1,.249-.173.452-.4.529-.755.252-.606-.484-2.747-.907-2.747-.549,0,.484-1.6,1.247-2.166,1.032-.708-.272-.427-5.061.374-6.356a.755.755,0,0,1,1.386.475m-101.775.485c-.262.262-.611.339-.776.174s-.037-.464.286-.664c.76-.469,1.1-.127.485.484m93.828-.077c-.139.225.032.7.382,1.047a2.264,2.264,0,0,1,.637,1.341,1.921,1.921,0,0,0,.485,1.186c.265.266.351.613.192.773s-.789-.228-1.4-.863-.88-1.026-.6-.871c.307.172.511.041.511-.323,0-.775-.821-1.308-1.165-.757-.162.264-.452.209-.786-.151-.436-.469-.382-.566.306-.566.457,0,.807-.137.782-.305-.1-.618.06-.916.485-.916.237,0,.323.186.178.41m4.687.113c0,.29-.367.552-.808.587-.807.059-1.06-.323-.543-.839.464-.466,1.358-.3,1.358.252M110.13,50.2c-.474.474-2.253.513-2.253.05,0-.256.268-.362.6-.236a.72.72,0,0,0,.844-.161.474.474,0,0,1,.647-.145c.223.137.3.361.161.5m2.748.485c.143.543-.043.7-.76.662-1.294-.074-1.63-1.38-.362-1.38a1.106,1.106,0,0,1,1.122.718m-5.417.38c0,.472-2.01.807-2.274.376-.12-.194.162-.352.621-.352s.839-.2.839-.431.184-.324.407-.18a.839.839,0,0,1,.407.587M89.272,52.108c-.25.647-.97.849-.97.272a.961.961,0,0,1,.869-.883c.18,0,.221.274.092.611m89.922.509c.024.992.069,1.028.378.305.485-1.112.485-1.425,0-1.425-.225,0-.394.5-.378,1.12m-76.311.027c.1.3-.087.39-.485.236-.353-.137-.646-.427-.646-.646,0-.536.924-.2,1.131.409M226.62,52.31a1.4,1.4,0,0,1-1.065.408c-.448,0-.7-.185-.563-.408a1.4,1.4,0,0,1,1.065-.407c.448,0,.7.184.563.407m-8.848.723c-.461.559-.375.6.7.334,1.633-.4,2.022-.838.808-.911a2.021,2.021,0,0,0-1.506.577M108.1,54.242c-.133.133-.241,0-.241-.284,0-.414-.127-.421-.593-.033a1,1,0,0,1-1.018.23c-.235-.146-.426-.07-.426.161s-.289.432-.646.432c-1,0-.448-.927.658-1.094a3.031,3.031,0,0,0,1.387-.55c.26-.26.523-.174.758.245.2.354.252.752.12.886M228.959,53.4c-.647.525-.63.551.237.312.763-.212.93-.116.848.485a4.125,4.125,0,0,0,.436,1.858c.432.892.436,1.229.023,1.728-.587.707-1.3.462-1-.339a1.076,1.076,0,0,0-.425-1.055c-.722-.6-.863-1.429-.17-1,.28.174.387.064.275-.281a1.391,1.391,0,0,0-1.072-.695c-1.4-.207-1.131-1.491.336-1.542,1.11-.041,1.156,0,.507.53m2.928.939c0,.447.123.807.273.807s.369-.367.485-.807c.125-.485.013-.808-.272-.808s-.484.367-.484.808m-122.4.838c0,.21-.367.383-.808.383-.9,0-1.11-.647-.305-.93.616-.221,1.122.024,1.122.546m101.041.18c-.416.5-.389.611.153.611a.647.647,0,0,0,.661-.611c0-.336-.07-.611-.162-.611a2.152,2.152,0,0,0-.66.611M216,54.995a1.235,1.235,0,0,1,.2,2.019c-.646.4-1.664-.781-1.357-1.582.3-.775.286-.771,1.161-.436M90.136,56.383a.468.468,0,0,1-.635.18c-.209-.127-.38-.041-.38.2a.446.446,0,0,1-.458.431c-.323,0-.3-.189.05-.611.562-.677,1.826-.853,1.421-.2m15.281.4c0,.448-.184.808-.407.808s-.407-.367-.407-.808.184-.808.407-.808.407.367.407.808m3.056,0c-.777.86-1.833,1.1-1.833.407,0-.225.356-.407.791-.407a1.362,1.362,0,0,0,1.042-.407c.14-.225.361-.407.495-.407s-.089.367-.495.808m111.314,0c.989.777,2.012.763,1.525-.023-.127-.208.071-.378.444-.378.452,0,.6.215.432.646a3.79,3.79,0,0,0-.248,1.054c0,.251-.617.305-1.592.14-1.4-.236-1.628-.161-1.875.616-.218.691-.384.775-.75.386s-.346-.544.037-.683.393-.4.084-.969c-.853-1.6.31-2.063,1.94-.779m5.791-.235c.323.393.343.658.05.839-.236.145-.429.069-.429-.162s-.286-.431-.635-.431-.522-.185-.383-.408c.351-.567.836-.509,1.4.162m8.993,1.277a1.939,1.939,0,0,0,.868,1.754c.824.516.854.485.583-.615-.459-1.873-1.455-2.652-1.455-1.131m-57.038-.162c0,.4,1.243.792,1.666.53.716-.443.36-.91-.646-.852-.56.032-1.018.176-1.018.323m46.038-.127c0,.53-.485.884-.879.647-.422-.26-.057-.98.5-.98a.366.366,0,0,1,.383.34m2.3,1.086c-.076.224-.534.351-1.016.281-.684-.1-.824.036-.646.611.218.7.2.7-.229.023-.252-.394-.375-.852-.274-1.018.284-.461,2.323-.36,2.163.1m-134.541.647c-.123.2.1.365.485.365.543,0,.6.113.245.473s-.624.345-1.1-.05c-.808-.674-.826-1.694-.019-1.386.335.127.507.4.382.6m140.588.365a.827.827,0,0,0-.016.788.439.439,0,0,1-.134.606c-.2.125-.463-.137-.581-.583-.336-1.294-.981-.938-.781.425.183,1.245,1.185,1.4,2.305.35.646-.6,2.263-.44,2.02.2a.683.683,0,0,0,.485.824c.549.211.6.152.231-.289-.548-.661-.213-1.131.59-.816.867.331.684-.417-.243-1-.485-.3-.808-.343-.808-.1,0,.622-1.056.484-1.63-.2s-1.071-.779-1.427-.2m-129.636.665c.14.142.063.619-.175,1.062-.51.955-1.332.393-.936-.646.272-.71.673-.86,1.111-.422m125.778.049c.019.892.8,1.486.808.611,0-.5-.178-.916-.4-.916s-.4.137-.4.305M90.564,62.023c-.345.346-1.427-.826-1.162-1.257.161-.259.472-.135.807.323.3.411.461.83.356.934m2.122-.742a.808.808,0,0,1-.789.808c-.842,0-.936-.443-.239-1.139s1.1-.6,1.028.323m5.572,1.7c-.647,1.054-1.242.268-.816-1.086l.445-1.425.29,1.085a2.619,2.619,0,0,1,.081,1.427M211.41,61.247c-.358.221-.162.4.633.546,1.421.274,1.687.089.663-.459a1.487,1.487,0,0,0-1.294-.088m25.442.7c-.176.7-.084,1.2.262,1.417.407.258.414.34.025.344a.485.485,0,0,0-.51.438c0,.236.2.31.436.162s.87.134,1.4.63c1.051.985,1.833.807,1.833-.432,0-.913-.41-1.007-1.222-.282-.485.43-.485.4-.051-.181s.39-.771-.323-1.219c-.466-.29-.846-.748-.846-1.018,0-1-.738-.9-1,.139M81.81,62.495c0,.225-.263.407-.587.407a1.076,1.076,0,0,1-.838-.407c-.139-.224.124-.407.587-.407s.838.184.838.407M63.818,63.747c-1.582,2.135-1.662,2.375-1.008,3.031.855.855.957.772.753-.614A1.811,1.811,0,0,1,64.3,64.2c.506-.409.836-.992.735-1.293-.122-.363-.539-.074-1.22.846m37.436-.019c-.034.444-.272.808-.529.808s-.39-.411-.274-1.014c.224-1.17.893-1,.807.207m-5.129.914c-.336.336-.462.339-.462,0a4.416,4.416,0,0,0-.282-1.2c-.274-.721-.258-.722.462,0,.556.552.627.857.282,1.2m136.839-1.164c0,.372.285.5.808.36.446-.116.71-.375.587-.572-.356-.575-1.4-.419-1.4.212M81,64.233c0,.162-.646.305-1.425.305s-1.427-.152-1.427-.336.647-.323,1.425-.305S81,64.058,81,64.233m6.112.534c0,.668-1.131.769-2.036.181-.577-.374-.534-.436.373-.56a1.373,1.373,0,0,0,.668-.345c.411-.409,1,.019,1,.725m7.7-.143c.354.566.405.95.143,1.038-.232.078-.324.544-.2,1.038.284,1.177-.511.436-.9-.834-.18-.593-.105-.916.207-.916.365,0,.36-.152-.023-.611-.28-.336-.346-.611-.149-.611s.611.4.92.9m-17.2.484a1.081,1.081,0,0,0,.262,1.043c.365.368.323.422-.194.225a.809.809,0,0,0-.941.181.966.966,0,0,1-.729.435c-.254,0-.06-.375.429-.83a2.883,2.883,0,0,0,.892-1.222c0-.217.112-.393.248-.393s.15.252.032.561m13.835.66c.323,0,.484-.184.349-.407-.4-.646.459-.47,1.028.213.283.343.386.749.231.906s-.43.045-.609-.244c-.262-.422-.448-.405-.943.088-.738.738-1.616.106-1.23-.89.162-.42.3-.474.411-.161a.835.835,0,0,0,.763.485m144.27.169c.868,1.031,1.409,1.445,1.9,1.455.2,0,.027-.372-.391-.834-.577-.638-.638-.915-.252-1.154.309-.191.019-.315-.73-.315-1.214,0-1.225.018-.525.848m-10.9.647c.239.447.646.807.892.807s.125-.367-.281-.807a3.821,3.821,0,0,0-.892-.808c-.086,0,.041.367.282.808m4.213-.186c-.378.985.212,1.23.869.36.336-.444.6-.564.608-.275a.5.5,0,0,0,.47.509c.323,0,.3-.189-.05-.611-.657-.79-1.589-.782-1.9.018m3.385-.03c-.355.928.323,1.075.88.19.4-.646.382-.789-.08-.789a.955.955,0,0,0-.8.6M78.3,68.038c.152.4.062.583-.236.485-.61-.2-.944-1.131-.409-1.131.218,0,.511.289.646.646M93.219,67.8c0,.224-.367.407-.808.407s-.808-.185-.808-.407.367-.408.808-.408.808.183.808.408m-11.409.47c0,.587-.621.656-1.112.124-.405-.437-.346-.529.305-.484.443.034.808.194.808.357m162.7.577q-.061,1.045.459.846a1.014,1.014,0,0,1,.969.257c.834.834.485-.335-.373-1.259-1.029-1.1-.99-1.109-1.064.161M93.1,69.3c.079.239-.139.544-.485.675-.439.161-.627-.009-.627-.595,0-.839.838-.9,1.112-.081m-33.36.943c-.234.672-.591,1.222-.793,1.222a.407.407,0,0,0-.368.436c0,.241.323.375.713.3a.9.9,0,0,0,.719-.808,2.982,2.982,0,0,1,.776-1.521c.7-.773.707-.852.074-.852-.407,0-.873.507-1.122,1.222m18.394-.629c0,.6-1.727.537-1.928-.066-.077-.235.323-.425.894-.425s1.034.221,1.034.484m12.726,1.91c.109.734,0,1.131-.266,1.038-.243-.081-.439-.5-.439-.928,0-.5-.324-.826-.917-.91-.5-.073-.916-.27-.916-.442,0-1.445,2.312-.323,2.539,1.242m156.146.808c.172,1.363.826,2.324,1.274,1.874.3-.3-.576-2.636-1.1-2.962-.186-.113-.263.375-.173,1.086M87.81,73.617a9.442,9.442,0,0,1-1.324,2.008c-.225.161-.041.305.407.313s.63.147.407.312a6.95,6.95,0,0,0-1.118,1.84,4.135,4.135,0,0,1-1.324,1.778c-.349.135-.611.742-.611,1.415,0,.736-.213,1.178-.567,1.178-.587,0-1.245,1.175-.87,1.552.119.116.213,0,.213-.262a.434.434,0,0,1,.369-.475c.2,0,.274.364.161.808s-.362.718-.544.6-.466.01-.628.271c-.184.3-.12.369.175.188.259-.161.47-.2.47-.1a3.567,3.567,0,0,0,.227.786c.142.368-.088.672-.612.808a1.115,1.115,0,0,0-.837,1.251,1.769,1.769,0,0,1-.407,1.285,1.327,1.327,0,0,0-.407,1.022,1.456,1.456,0,0,1-.675,1.147.828.828,0,0,0-.419,1.039c.139.364.065.661-.161.661s-.3.188-.162.417.037.367-.231.305a.61.61,0,0,0-.674.4.342.342,0,0,0,.132.467.335.335,0,0,0,.191.042c.323,0,.245.285-.223.808a2.1,2.1,0,0,0-.485,2.019,1.662,1.662,0,0,1-.784,2.023c-.566.446-.99,1.049-.941,1.344a2.845,2.845,0,0,1-.239,1.293c-.207.485-.143.869.178,1.065.776.485-.375,2.051-1.5,2.051-1.008,0-1.211-.769-.416-1.566.324-.323.361-.609.1-.8-.566-.4-.733-1.715-.218-1.715a.417.417,0,0,1,.425.407.417.417,0,0,0,.422.407c.29,0,.29-.246,0-.789-.622-1.162-.513-2.462.231-2.748.507-.2.6-.6.407-1.8-.207-1.294-.1-1.657.671-2.224.614-.453.748-.742.407-.871-.741-.285-.624-.862.161-.8a.847.847,0,0,0,.853-.465c.1-.287-.04-.471-.312-.408a.655.655,0,0,1-.7-.459c-.146-.4,0-.495.457-.323.606.233.862-.147.71-1.057-.029-.174-.1-.634-.162-1.018a3.918,3.918,0,0,0-.443-1.237.735.735,0,0,1-.068-.808c.148-.152.426-.008.622.307.26.421.447.205.714-.826.284-1.1.591-1.427,1.455-1.529.938-.11,1.062-.272.848-1.12-.161-.628-.074-.992.227-.992.262,0,.362-.185.225-.408s.04-.407.4-.407c.5,0,.559-.161.253-.737-.323-.593-.12-.97,1.009-1.907.96-.808,1.33-1.4,1.173-1.893a1.052,1.052,0,0,1,.566-1.223c.438-.273.7-.737.59-1.032a.648.648,0,0,1,.446-.784c.358-.137.563-.392.454-.568-.284-.46,1.419-2.5,1.863-2.226.205.127-.039,1-.542,1.94M219.6,71.895a.543.543,0,0,0,1.065,0c.081-.241-.162-.438-.534-.438s-.613.2-.533.438m-126.444.918.892.949-.822.744a2.425,2.425,0,0,0-.821,1.267c0,.892-.71,1.015-.934.161-.117-.445-.045-.707.161-.583s.37-.056.37-.407a.625.625,0,0,1,.611-.635c.9,0,.745-.683-.2-.933a1.044,1.044,0,0,1-.807-.863q0-1.364,1.564.3m-17.047-.178c0,.2-.275.469-.611.6a1.182,1.182,0,0,0-.612,1.062c0,.454-.169.828-.378.828-.543,0-.719-1.741-.234-2.328s1.834-.695,1.834-.162m162.6.013c-.485.311-.485.462.073,1.014.892.892,1.23.808.707-.162-.548-1.023.174-1.112.824-.1.429.666.443.664.225-.034a5.869,5.869,0,0,1-.235-.916c0-.3-1-.17-1.594.206M85.592,73.06c.414.042.391.847-.024.847a3.051,3.051,0,0,1-1.12-.587c-.779-.577-.779-.583.024-.437.448.081.952.161,1.12.177m142.7.847a3.512,3.512,0,0,0,.835,1.222c.112,0-.081-.549-.428-1.222a3.514,3.514,0,0,0-.836-1.222c-.112,0,.081.55.429,1.222M57.642,74.62c-.11.393-.323,1.131-.47,1.656-.251.868-.205.9.57.415,1-.624,1.327-1.333,1.007-2.174s-.863-.771-1.107.1m19.589.519c.034.453-.11.716-.323.587-.462-.286-.513-1.411-.064-1.411.177,0,.35.37.383.824m-3.962.383c0,.364-1.277,1.237-1.807,1.237-.323,0,1.131-1.556,1.5-1.6.162-.019.305.142.305.359m10.083.66c-.388.388-1.167-.241-.877-.709.171-.279.4-.272.691.02.24.239.323.55.184.689m146.519.475a4.955,4.955,0,0,0,.839,1.324c.371,0-.324-1.65-.894-2.126-.534-.443-.525-.323.055.808m19.261,0a3.33,3.33,0,0,0,.794,1.527,2.465,2.465,0,0,1,.646,1.4,1.493,1.493,0,0,0,.646,1.154c.759.251.628-.444-.557-2.946-1.132-2.378-1.992-3.021-1.521-1.131M90.957,78.189c-.674,1.03-1.388,1.35-1.388.624,0-.217-.3-.28-.667-.139-.46.176-.606.078-.468-.323a1.11,1.11,0,0,1,1.075-.543c.485.019.875-.12.875-.306s.28-.336.621-.336c.543,0,.537.126-.047,1.018m-19.489.922c-.135.134-.472.022-.745-.254-.392-.393-.37-.579.109-.877.619-.387,1.171.6.637,1.131m6.9-1.131a1.532,1.532,0,0,0,.194,1.222c.368.69.323.822-.323.822-.574,0-.761-.3-.761-1.222,0-.773.209-1.222.568-1.222.312,0,.458.179.323.4m-4.465.451c.485.793-.515,1.363-1.2.681-.339-.34-.5-.731-.365-.87a1.1,1.1,0,0,1,1.543.163l.021.027m157.707.983c.943,1.609.962,1.633.962,1.131a3.469,3.469,0,0,0-.839-1.392l-.838-.961.715,1.222M87.369,80.917a2.144,2.144,0,0,1-1.376.2c-.513-.134-.454-.2.217-.231.5-.024.916-.241.916-.485s.207-.3.46-.147c.314.194.244.4-.216.663M71.644,82.424c0,.151-.5.245-1.12.208-1.4-.085-1.419-.095-1.155-.527.246-.4,2.274-.113,2.274.323M250.571,82.3c-.4.451-.687.5-1.073.177s-.594-.27-.775.2c-.162.406-.081.542.2.367s.359,0,.193.522c-.189.6.016.921.829,1.293,1.082.493,1.083.485.43-.5-.707-1.079.415-1.817,1.9-1.247.461.176.558.024.393-.613-.258-.985-1.315-1.086-2.1-.2M78.129,82.7a1.424,1.424,0,0,0-.121,1.237c.184.522.137.636-.152.358-.889-.859-.969-2.066-.127-2.066.554,0,.675.143.4.472m-4.162.575c-.117.448-.047.808.161.808s.369.311.369.691c0,.6-.078.587-.6-.1-.711-.941-.808-2.216-.162-2.216.254,0,.361.359.243.808m159.427-.4a50.706,50.706,0,0,0,2.838,6.647,27.588,27.588,0,0,0-2.308-6.035c-.3-.443-.533-.717-.53-.611M69.414,84.346c.541.206.568.323.134.6-.808.51-1.154.432-1.154-.253s.073-.714,1.02-.351M253.448,86.1c.562.9.956.789.591-.161-.135-.346-.433-.629-.666-.629-.268,0-.241.293.074.8M68.8,86.738c-.591.709-1.223.808-1.223.179,0-.236.185-.323.408-.179s.407.057.407-.18a.445.445,0,0,1,.457-.431c.323,0,.3.189-.05.611m.738,1.551c-.047,1.233-.162,1.355-1.447,1.44-.949.065-1.306-.051-1.114-.364a.968.968,0,0,1,1.026-.263c.828.216,1.437-.771.669-1.085-.347-.143-.312-.323.125-.63.824-.583.8-.62.738.9m2.693.332a.418.418,0,0,1-.566.161c-.184-.114-.451.092-.593.459s-.356.568-.485.446c-.4-.4.779-1.857,1.331-1.646.3.113.433.372.307.577M85.3,89.8a.506.506,0,0,0,.7.14c.264-.161.323-.083.151.2-.274.443-1.872-.039-1.872-.562,0-.358.766-.189,1.021.224M67.162,91.628c0,.7-.223,1.015-.713,1.011-.533,0-.578-.09-.182-.343.292-.186.5-.5.46-.706-.1-.547,0-.982.231-.982.113,0,.2.459.2,1.019m6.466.646c-.617.382-1.285.073-.969-.448a.744.744,0,0,1,.855-.12c.494.189.519.313.108.566m11.229-.266c-.853.625-1.239.556-.807-.143a1.2,1.2,0,0,1,.932-.435c.558,0,.537.1-.125.577m152.881,3.5c.458,2.471.952,3.647.687,1.629a9.3,9.3,0,0,0-.595-2.444c-.218-.379-.253-.068-.09.807m-163.642.595a1.313,1.313,0,0,0-.179,1.186c.323.831-.109.853-.914.049-.337-.337-.808-.493-1.052-.344s-.324.078-.148-.2a1.393,1.393,0,0,1,1.082-.47c.435,0,.769-.138.742-.305-.107-.686.073-.951.475-.7.3.184.3.423,0,.787m158.87.865c-.519,1.364-.213,1.8,1.259,1.8,1.294,0,1.534-.646.776-2.064-.591-1.108-1.563-.982-2.036.265M69.2,97.119c0,.484-.313.484-1.427,0-.722-.311-.687-.354.305-.379.616-.016,1.122.162,1.122.379M81.418,99c0,.541-.111.568-.612.153a2.143,2.143,0,0,1-.609-.661c0-.084.275-.153.609-.153a.647.647,0,0,1,.612.661M80,101.2c.221.358.095.372-.5.054a1.325,1.325,0,0,1-.693-1.366c.161-1.413.213-1.439.568-.257A8.711,8.711,0,0,0,80,101.2m-9.432-1.029c-.264.687-.8.8-1.145.238-.127-.2,0-.466.282-.579.9-.364,1.1-.284.863.341m168.207,0a10.792,10.792,0,0,0,.323,2.037c.28,1.1.312,1.118.323.2a7.854,7.854,0,0,0-.323-2.036c-.255-.8-.323-.843-.323-.2m-172.43.628c0,.331-2.483.9-2.748.624-.1-.1-.078-.344.047-.545.266-.429,2.706-.5,2.706-.077m15.482.174c0,.364-.239.507-.611.364-.336-.129-.611-.4-.611-.6s.274-.364.611-.364a.606.606,0,0,1,.611.6m-17.64,2.263a1.617,1.617,0,0,0,.36,1.4,1.911,1.911,0,0,1,.575,1.01c0,.241.383.436.849.436s.784.2.7.438-.278.425-.442.407-.57-.031-.907-.031-.566-.229-.511-.509-.265-.485-.727-.468c-.71.037-.834-.215-.861-1.732-.02-1.3.129-1.778.573-1.778.4,0,.529.272.386.822M65.94,103c0,.646-.738,1.255-1.1.9s.188-1.484.676-1.484c.231,0,.42.265.42.587m9.089,4.041c-.307,1.617-.3,1.617-1.309,1.293l-.837-.267.836-.892.836-.892-.844-.131c-.463-.071-.843-.268-.843-.438s.542-.229,1.2-.132c1.106.161,1.184.281.961,1.455m-12.947.382c-.174.4-.2.845-.063.984.413.414.748-.161.558-.969-.162-.711-.191-.713-.493-.015M74.1,109.84a3.514,3.514,0,0,1,.161,4.174c-.355.544-.527,1.177-.382,1.411s.022.43-.27.438c-.323.008-.213.255.28.627.7.527.725.669.2,1-.335.212-.448.389-.254.391s.105.323-.2.694c-.485.6-.47.646.153.42.393-.147.714-.11.714.084s-.236.443-.526.553-.506.807-.476,1.674c.027.808-.115,1.471-.314,1.471s-.218.228-.042.51a2.039,2.039,0,0,1,.2,1.222c-.065.392.039.713.229.713s.374.367.408.808-.111.808-.324.808-.381.274-.381.611.177.611.394.611.29.274.162.611-.027.611.224.611c.3,0,.252.323-.139.916a4.876,4.876,0,0,0-.631,1.219,4.679,4.679,0,0,1-.252.881,2.934,2.934,0,0,0,.4,1.778c.591,1.139.521,1.718-.206,1.718-.176,0-.442-.646-.589-1.427s-.41-1.425-.586-1.425-.421-.267-.545-.591c-.135-.352-.03-.515.262-.407.63.238,2.022-2.148,1.455-2.5a.672.672,0,0,1-.205-.789c.117-.3-.407-.95-1.193-1.485-1.591-1.084-1.689-1.362-.691-1.922a1.857,1.857,0,0,0,.713-1.657c0-1.021-.085-1.142-.452-.646-.249.34-.593.619-.762.619s-.094-.261.171-.58a1.739,1.739,0,0,0,.409-1.12c-.162-1.209.049-2.373.43-2.373.224,0,.407.286.407.633s.161.537.357.415c.452-.278.472-2.271.025-2.271a.841.841,0,0,0-.584.407.924.924,0,0,1-.7.407c-.258,0-.183-.3.174-.713,1.455-1.674,1.678-2.6.545-2.311-.707.177-1.039.095-1.039-.259,0-.286.117-.4.258-.261.544.544,1.821-.569,1.568-1.37-.148-.466-.06-.79.212-.79.527,0,.114-1.748-.462-1.971a.341.341,0,0,1-.161-.455.308.308,0,0,1,.048-.073c.149-.243.457-.215.808.073a1.219,1.219,0,0,0,1.085.256c.333-.135.268-.222-.178-.243s-.616-.252-.466-.647c.129-.336.031-.609-.217-.609s-.451-.274-.451-.611c0-.936.343-.738,1.227.713m-5.708.76c0,.427-.129.442-.985.113-.936-.359-.792-.936.17-.685.448.116.808.375.808.572M86,110.6c.252.755,1.131.881,1.131.162a.647.647,0,0,0-.646-.647c-.356,0-.572.219-.485.485m4.44.063c-.249.3-.323.684-.151.849s.12.265-.105.22c-.774-.161-1.425.016-1.425.375,0,.457,2.415.83,2.672.413a.442.442,0,0,0-.221-.568c-.726-.447-.446-1.022.5-1.03.741,0,.8-.081.306-.4-.808-.528-1.041-.508-1.578.139m-25.9,2.306a2.7,2.7,0,0,1,1.4.808c.634.633.679.808.2.808-.336,0-.611-.185-.611-.408,0-1.032-.777-.259-.891.886-.07.711-.387,1.378-.7,1.482-.394.129-.494-.019-.323-.485s.033-.674-.444-.691c-.521-.019-.466-.12.217-.394,1.069-.429,1.162-1.022.3-1.883A1,1,0,0,1,63.372,112c.2-.323.346-.247.442.236a.846.846,0,0,0,.722.713m175.885.407c0,1.008.08,1.421.176.916a5.836,5.836,0,0,0,0-1.833c-.1-.5-.176-.092-.176.916m54.179,2.648c0,.9.088,1.216.186.707a4.478,4.478,0,0,0-.008-1.629c-.1-.39-.182.026-.178.922m-54.15,2.242c0,1.681.073,2.368.162,1.527a17.774,17.774,0,0,0,0-3.054c-.089-.841-.162-.154-.162,1.527m-172.884.127c0,.209-.274.152-.611-.127a1.735,1.735,0,0,1-.6-1.17c.015-.738,1.209.544,1.209,1.294m-2.615,3.36c-.375.375-.808.545-.97.375s-.056-.39.222-.485.521-.67.537-1.269c.027-1.059.039-1.063.46-.192a1.12,1.12,0,0,1-.238,1.566l-.014.01m175.066,2.072c0,1.345.077,1.844.161,1.112a10.847,10.847,0,0,0,0-2.444c-.094-.613-.161-.013-.161,1.33m-160.491,1.26c.276.719,0,1.388-.589,1.388-.209,0-.341-.458-.294-1.018.095-1.157.512-1.332.883-.372m-12.791.365a2.667,2.667,0,0,1-.612.618c-.511.421-.611.367-.611-.346,0-.59.188-.781.611-.617.336.129.612.284.612.345m4.981.144c-.4.255-.357.477.2.983.673.609.728.585.781-.335.064-1.047-.142-1.182-.985-.646m-7.537,1.293c.034.448-.186.808-.485.808-.345,0-.468-.3-.333-.808.117-.447.336-.807.485-.807s.3.367.335.807m175.4.808c0,.784.084,1.106.186.713a3.372,3.372,0,0,0,0-1.427c-.1-.392-.186-.071-.186.713m-169.176.05c0,.323.184.3.6-.045.535-.443,1.433.718,1.433,1.854,0,.413-1.175.135-1.392-.331-.189-.407-.284-.407-.475,0-.421.907-1.007.54-.753-.472.184-.737.059-1.031-.5-1.176-.606-.161-.574-.2.161-.239.5-.026.916.162.916.411M77.961,129c-.257,1.378-.266,1.385-.613.509-.2-.5-.145-.933.131-1.114.646-.43.671-.407.485.6m4.249-.1c0,.18-.365.231-.807.113s-.716-.367-.6-.554c.249-.4,1.409-.037,1.409.441M265.2,130.594c-.544.872-.152.953.865.181.856-.646.9-.928.161-.928a1.533,1.533,0,0,0-1.022.746m-182.243.616a1.188,1.188,0,0,1,.393,1c-.1.3-.386.225-.82-.207a2.237,2.237,0,0,0-1.052-.666,1.7,1.7,0,0,1-.915-.637c-.683-.823,1.531-.356,2.392.506m-7.975-.174c.22.6-.049,1.527-.439,1.527-.149,0-.272-.459-.272-1.018,0-1.078.4-1.363.711-.509m3.568,1.94c-.511.336-.463.443.29.646s.82.323.335.808c-.787.787-1.5.709-1.356-.145.066-.393-.1-.669-.375-.616s-.4-.162-.262-.509a1.216,1.216,0,0,1,1.106-.6c.716,0,.763.079.262.407m-10.831.769c.46.507.552.866.266,1.042-.239.149-.447.028-.465-.265-.021-.351-.1-.375-.223-.066-.105.256-.538.375-.97.264-.646-.17-.695-.323-.29-.97.6-.969.808-.969,1.677,0m13.681,1.67c.189,0,.429-.229.53-.509.149-.4.3-.406.719,0,.8.752.2,1.055-1.455.745-1.294-.243-1.409-.358-.936-.928s.551-.593.672.024c.073.372.286.675.475.675m-10.089-.311c-.063.162-.22.577-.35.916-.3.794-.969.8-.969,0,0-.336-.184-.611-.407-.611a.381.381,0,0,1-.407-.347c0-.189.5-.324,1.12-.3s1.069.176,1.008.343m5.392-.126a.469.469,0,0,1-.181.636c-.228.14-.414.04-.414-.225,0-.359-.161-.352-.611.026-.368.305-.611.339-.611.084,0-.386.6-.787,1.293-.867a.673.673,0,0,1,.515.348m-7.825,1.094a1.021,1.021,0,0,1,.713.808c0,.323-.254.454-.611.323-.637-.246-.867.46-.27.829,1.246.771.411,2.91-1.131,2.91-.869,0-1.494-.143-1.387-.315a1.759,1.759,0,0,1,1.19-.315c1.108,0,1.232-.436.5-1.757-.626-1.131-.769-1.98-.29-1.682.2.126.372.035.372-.2a.422.422,0,0,0-.407-.431.425.425,0,0,1-.407-.442c0-.242.228-.334.509-.2s.83.351,1.222.485m5.591.97c.881,0,.838,1.532-.051,1.763a.792.792,0,0,1-.936-.428c-.172-.446-.041-.545.484-.362.573.2.552.129-.1-.348-1.433-1.051-1.834-1.463-1.834-1.88,0-.225.4-.034.892.423a3.02,3.02,0,0,0,1.542.831m-2.543,1.163c-.423.521-.383.574.256.333.609-.228.7-.143.46.434a4.456,4.456,0,0,0-.323,1.226c-.031.786-.692.6-.739-.2-.022-.392-.1-1.445-.181-2.342-.127-1.492-.09-1.564.441-.849.466.626.485.906.08,1.4m9.886-1.571c.495.323.436.4-.305.4-.5,0-.916-.176-.916-.4,0-.511.433-.511,1.222,0m155.839.807a3.02,3.02,0,0,0-.092,1.47c.1.1.307-.4.449-1.112a3.353,3.353,0,0,0,.092-1.47c-.092-.092-.3.409-.449,1.114m-159.175-.026c.1.305-.052.458-.358.356a1.278,1.278,0,0,1-.713-.713c-.1-.306.052-.46.358-.358a1.278,1.278,0,0,1,.713.713m6.276,1.323c-.622.622-1.081.161-.737-.738.2-.53.381-.583.742-.221s.36.59,0,.957m-7.921,1.114c.065.019-.118.29-.407.6-.551.595-2.172.12-1.778-.522.162-.252,1.427-.3,2.184-.081m3.142.034c.139.225-.137.407-.611.407s-.749-.182-.611-.407a.663.663,0,0,1,1.222,0m156.492,1.875a8.393,8.393,0,0,0-.552,2.435,6.027,6.027,0,0,0,.879-2.1,8.394,8.394,0,0,0,.552-2.434,6.032,6.032,0,0,0-.879,2.1M84.414,140.138c1.083.415.72,1.083-.468.856-.986-.189-1.031-.153-.4.311.76.556-.323,1.225-1.689,1.047-.462-.06-.462.022,0,.522.337.363.646.436.808.187s.351-.249.484-.037c.816,1.323-.559,1.245-1.661-.092-.684-.828-1.442-1.384-1.687-1.232s-.446.081-.446-.162c0-.549,1.046-.554,2.066-.008.658.351.869.249,1.261-.611.5-1.093.7-1.183,1.733-.787m-8.891,2.6a.96.96,0,0,1,.738.647c.161.425.074.564-.262.407-.282-.131-.83-.351-1.222-.485s-.713-.391-.713-.561-.458-.308-1.018-.308c-1.123,0-1.274.3-.53,1.039.38.382.335.484-.2.484-.834,0-.91-1.175-.143-2.224.38-.521.637-.607.839-.282.433.7,1.05.566,1.1-.243q.043-.713.485.407c.242.615.662,1.12.931,1.12m10.3-.916a3.734,3.734,0,0,0,.647,2.627c.525.376-.015.892-.573.548a2.029,2.029,0,0,1-.433-1.444,2.034,2.034,0,0,0-.413-1.43.47.47,0,0,1-.182-.636c.388-.626.951-.429.951.333M71.62,145.027c0,.511.126.558.551.2.673-.558,2.77-.443,2.586.143-.2.624-1.907.773-1.907.162,0-.285-.26-.162-.587.278-.66.889-2.263-.066-1.678-1,.413-.669,1.043-.538,1.043.213m4.88.582c-.385.72-.558.789-.841.34-.236-.372-.127-.736.323-1.069.9-.675,1.114-.378.522.729m2.492.826a2.588,2.588,0,0,0,2.11.681c.7-.1,1.071,0,.969.274a.591.591,0,0,1-.687.323.9.9,0,0,0-.866.407c-.276.429-.417.414-.728-.067-.212-.324-.512-.472-.669-.324s-.051.563.231.906.334.621.109.621c-.655,0-1.206-.918-1.405-2.343a6.376,6.376,0,0,1-.113-1.324,10.572,10.572,0,0,1,1.048.846m6.973.07c-.066.392.071.713.305.713s.425.282.425.629a.519.519,0,0,0,.506.532.526.526,0,0,0,.166-.023.732.732,0,0,1,.819.3c.082.232-.22.422-.67.422s-.82-.144-.82-.323-.2-.323-.432-.323-.323.184-.179.407-.025.407-.36.407a1.145,1.145,0,0,1-.889-.448c-.162-.253-.783-.347-1.456-.213s-1.171.121-1.171-.016c0-.509,1.455-1.333,2.376-1.347.576,0,.884-.213.779-.522a1.1,1.1,0,0,0-1.015-.511,2,2,0,0,1-1.183-.336c-.188-.184.392-.277,1.293-.2,1.286.1,1.6.281,1.507.845m-9.736,1.926c-.124,2.192-.873,2.412-.838.247.018-1.175.2-1.834.472-1.742.245.081.411.755.367,1.5m-4.174-.815a.609.609,0,0,0-.3.781.5.5,0,0,1-.152.68c-.228.141-.413-.09-.413-.515,0-.871.336-1.317.984-1.308.243,0,.189.161-.12.362m1.5,1.88c-.365.367-1.222-.575-.938-1.033.235-.378.411-.323.7.189.213.382.323.763.236.846m8.7,1.081c.952.951.938,1.131-.07.861-.447-.116-.807-.465-.807-.776a.59.59,0,0,0-.612-.564c-.336,0-.609-.178-.609-.395,0-.535,1.194-.04,2.1.873m2.375-.429c0,.2-.366.36-.808.36s-.808-.257-.808-.572c0-.372.284-.5.808-.361.448.117.808.375.808.573m3.381.223c-.161.436-.1.578.189.4a.509.509,0,0,1,.7.138c.141.228.061.413-.174.413s-.432.268-.432.6c0,.363.239.507.611.363.792-.3.773.043-.082,1.347-.681,1.039-.677,1.053.229.765.847-.268.881-.225.4.541-.368.593-.609.692-.824.343s-.475-.263-.918.324c-.606.807-.614.807-.627-.105,0-.5.139-.916.323-.916.666,0,.323-1.214-.4-1.445-1-.324-1.566.092-1.566,1.139,0,.853.01.854.646.077.591-.724.624-.727.408-.045a5.046,5.046,0,0,0-.236,1.131c0,.207-.824.346-1.833.307-1.221-.045-1.834-.251-1.834-.613,0-.537,1.031-.568,1.851-.055.567.354.691-2.938.137-3.606-.313-.375-.213-.485.382-.446.474.035.717.274.6.587s.1.529.521.529c.4,0,.6-.121.454-.268s-.065-.513.186-.808c.333-.4.333-.546,0-.546a.438.438,0,0,1-.458-.407c0-.223.453-.407,1.006-.407.771,0,.946.161.745.677m-15.356.9c.052.263,0,.292-.114.063a.908.908,0,0,0-.76-.417,1.033,1.033,0,0,1-.808-.4c-.162-.253.087-.278.668-.063.5.186.958.554,1.008.82m1.778-.162c0,.364-.239.506-.611.364-.336-.129-.611-.4-.611-.6s.274-.363.611-.363a.605.605,0,0,1,.611.6m1.426.76a.526.526,0,0,0,.564.475c.31,0,.722.458.916,1.018.323.951.313.97-.243.252-.446-.577-.9-.7-1.833-.519-1.272.254-1.761-.372-.628-.808a1.014,1.014,0,0,0,.611-.869c0-.35.138-.5.305-.323a1.268,1.268,0,0,1,.306.781M232.6,152.7a9.6,9.6,0,0,0-.867,2.135c.01.2.485-.525,1.047-1.617a6.649,6.649,0,0,0,.867-2.136c-.089-.088-.56.637-1.047,1.616m-165.159-.067a1.925,1.925,0,0,1,.485,1.178,1.056,1.056,0,0,0,.611.924c.336.127.611.057.611-.162a.4.4,0,0,0-.407-.394c-.225,0-.378-.137-.343-.305.12-.568-.555-1.731-1-1.731-.3,0-.284.161.043.484m17.193-.106c0,.21-.366.354-.808.323s-.808-.205-.808-.382.366-.323.808-.323.808.171.808.382m-12.734.789c-.152.58-.023.716.541.568s.724.021.677.647c-.04.546-.215.709-.5.472a.9.9,0,0,0-1.036.014,2.4,2.4,0,0,1-1,.378c-.225,0-.133-.181.2-.4.544-.356.544-.446,0-.792s-.494-.485.2-1.006c1.061-.807,1.151-.788.914.123m67.556.258c.779.6.779.607-.024.368-.654-.2-.7-.162-.207.188.692.484,1.463-.046,1.045-.724a1.21,1.21,0,0,0-.939-.444c-.56,0-.54.1.125.613m-57.573,1.486c-.22.836-.251.842-.777.125-.42-.575-.433-.82-.057-1.051.734-.454,1.092-.057.834.926m9.155.763c-.034.443-.192.808-.353.808-.526,0-.835,1.655-.4,2.173a.9.9,0,0,1,.041,1.1c-.313.495-.38.5-.385.026,0-.383-.255-.284-.766.305a2.881,2.881,0,0,1-1.047.878.97.97,0,0,0-.55,1.809c1.2.838,2.824.856,2.506.024-.3-.781.415-.8,1.057-.023.359.432.752.485,1.476.213.583-.221.986-.224.986,0a2,2,0,0,0,.6.97c.533.533.465.646-.584,1.016-1.386.485-2.723.228-3.033-.583-.25-.646-2.282-.792-2.282-.161,0,.224-.367.407-.808.407a.732.732,0,0,1-.808-.636c0-.821-.658-.417-.915.561-.162.609-.012.719.766.57.529-.1.969,0,.969.225s.3.384.669.354a.874.874,0,0,1,.871.517c.143.405,0,.495-.5.3s-.767-.029-.918.546c-.117.45-.369.816-.561.816s-.243-.274-.113-.611c.162-.429-.034-.611-.674-.611-.768,0-.828.1-.393.621.285.343.389.748.231.906-.4.4-1.04-.731-1.047-1.832,0-.666-.257-.928-.923-.957-.9-.04-.9-.045.058-.313,1.438-.4,1.868-1.907.762-2.68-.484-.336-.722-.755-.538-.928s.419-.088.519.194c.254.711.928.637.928-.1a.637.637,0,0,1,.655-.611c.429,0,.568-.221.407-.646-.469-1.223.178-2.615,1.216-2.615a1.117,1.117,0,0,0,1.22-1l0-.016c.141-.559.506-1.018.808-1.018.349,0,.458-.251.294-.677s-.1-.579.191-.4a1.279,1.279,0,0,1,.39,1.086m-9.214,1.01a6.313,6.313,0,0,0,2.552,1.833,2.392,2.392,0,0,1,1.872,1.732c.026.609-.745.286-.873-.366-.092-.468-.588-.683-1.639-.713-.954-.027-1.366.1-1.122.346.5.5.506,1.159.008.852a.469.469,0,0,0-.636.18,2.228,2.228,0,0,1-1.556.381l-1.293-.03,1.112-.407c.868-.323,1.1-.647,1.036-1.5-.088-1.241-.758-1.895-1.2-1.174-.229.372-.417.367-.808-.02s-.4-.506.027-.506c.305,0,.433-.26.3-.611s-.08-.611.11-.611a1.634,1.634,0,0,1,.852.611,1.637,1.637,0,0,0,.951.611c.243,0-.191-.543-.97-1.206s-1.2-1.214-.952-1.222a7.581,7.581,0,0,1,2.236,1.817m148.872-.2c-.348.673-.54,1.222-.429,1.222a3.514,3.514,0,0,0,.836-1.222c.347-.672.54-1.222.429-1.222a3.5,3.5,0,0,0-.836,1.222m-160.32-.2c0,.336-.184.611-.407.611s-.407-.274-.407-.611.184-.611.407-.611.407.274.407.611m16.229.609c.1.286-.018.4-.251.259a.434.434,0,0,0-.593.155.47.47,0,0,0-.041.095c-.162.388-.323.363-.646-.1-.391-.537-.514-.522-1,.113-.517.674-.574.677-.821.033a.849.849,0,0,1,.257-1.015c.757-.468,2.9-.151,3.1.46M228.805,160c-.323.5-.992,1.65-1.5,2.545-1.076,1.919.1.425,1.5-1.9.992-1.65.992-2.213,0-.646M74.7,161.7a2.444,2.444,0,0,0,.834,1.617c1.018.393.6.923-.587.748-1.075-.161-1.157-.3-1.141-1.965.019-2.138.525-2.365.894-.4m8.33.6c0,.2-.368.272-.821.162-.63-.162-.763-.063-.568.446.162.43.037.66-.364.66s-.546-.266-.4-.808c.213-.816,2.154-1.219,2.154-.446m.256,2.3c-.5,1.083-1.311,1.4-.91.352a4.063,4.063,0,0,0,.247-1.209.375.375,0,0,1,.349-.4.371.371,0,0,1,.212.049c.444.172.466.422.1,1.208m13.2,2.815c-.282.34-.687.51-.9.377s-.485.133-.6.587c-.143.543-.433.745-.849.585-.515-.2-.578-.031-.341.915.254,1.016.213,1.093-.347.627a1.882,1.882,0,0,1-.637-1.243c0-.827.959-1.758,1.378-1.338.161.161.386-.109.513-.587.139-.534.447-.785.8-.646.387.149.581-.093.6-.742l.027-.961.436.907a1.211,1.211,0,0,1-.073,1.523M78.846,166.3c.089.268-.172.47-.577.452a5.171,5.171,0,0,0-1.325.124.619.619,0,0,1-.731-.483l-.006-.036c-.18-.808,2.37-.871,2.64-.058m2.112.092c.429.43.674.888.543,1.019s.162.237.647.237c.956,0,1.175.587.4,1.067a.405.405,0,0,1-.57-.046.415.415,0,0,1-.069-.116c-.083-.251-.46-.345-.838-.212s-.554.1-.393-.077-.081-.849-.537-1.493c-.936-1.314-.372-1.579.822-.384m10.119-.525c.5.135.916.42.916.633s-.367.272-.808.129-.808-.074-.808.176a.423.423,0,0,1-.407.435c-.225,0-.407-.367-.407-.807,0-.881.137-.931,1.527-.558m132.313,2.29c-1.08,1.4-1.6,2.224-1.151,1.831a21.134,21.134,0,0,0,3.276-4.379,22.744,22.744,0,0,0-2.125,2.548m-138.731-.045c0,.454-.2.76-.437.678s-.424-.278-.408-.441.031-.58.031-.931.184-.521.407-.382a1.408,1.408,0,0,1,.407,1.077m-5.879-.29a1.943,1.943,0,0,1,.575,1.12c0,.436-.073.433-.356-.013-.263-.415-.547-.444-1.162-.116-.983.525-1.309.278-1.033-.783.244-.932,1.155-1.028,1.973-.208M89.3,168.2a9.678,9.678,0,0,1-.877,1.18c-.646.748-.415.9,1.159.75,1.025-.1.852,1.541-.239,2.263-1.033.676-1.008,1.509.034,1.109.323-.127.6-.027.6.221s-.459.451-1.018.451c-.647,0-1.019-.229-1.019-.635,0-.35-.174-.528-.388-.4-.529.323-2.056-1.032-2.056-1.829a1.854,1.854,0,0,0-.485-1.131c-.357-.358-.362-.485-.021-.485a1.249,1.249,0,0,1,.846.674.83.83,0,0,0,1.039.421c.452-.174.665-.033.669.446,0,.59.066.6.383.1a.972.972,0,0,0,.045-1.019c-.689-.872.1-3.15.969-2.815.343.133.506.45.36.707m8.417,1.33c0,.336-.182.5-.407.361a1.107,1.107,0,0,1-.407-.863c0-.336.184-.5.407-.359a1.106,1.106,0,0,1,.407.863m-14.606,1.176a.636.636,0,0,1-.436.533c-.241.081-.438-.162-.438-.533s.2-.613.438-.534a.637.637,0,0,1,.436.534m15.827.153c0,.522-1.2,1.433-1.494,1.131s.616-1.494,1.131-1.494a.359.359,0,0,1,.358.357m117.943,4.572A69.08,69.08,0,0,1,203.5,186.77a18.908,18.908,0,0,0-3.367,2.363,60.215,60.215,0,0,0,8.811-5.677c4.741-3.973,13.321-12.538,12.561-12.538-.082,0-2.163,2.035-4.623,4.526M94,172.814c-.448.54-.409.732.243,1.209.427.312.646.59.493.619l-.587.106c-.683.127-1.324.734-1.12,1.064a.484.484,0,0,1-.23.627c-.245.152-.339.706-.206,1.232.21.836.059.99-1.19,1.224-1.617.3-1.674.4-.82,1.255.826.826.773,1.4-.1,1.088-2.116-.753-2.274-1.922-.349-2.558a2.844,2.844,0,0,0,2.042-2.736,1.5,1.5,0,0,1,.349-.781c.561-.56.3-.98-.615-1.012q-.916-.031-.305-.264a2.174,2.174,0,0,0,.942-.792c.181-.307.485-.466.666-.352s.461-.2.613-.7c.174-.575.358-.72.485-.39a1.335,1.335,0,0,1-.323,1.163m8.349-.323c.66.73.635.742-.747.309-1.131-.351-1.28-.508-.724-.73.39-.161.726-.292.747-.309a5.638,5.638,0,0,1,.724.73m-19.3.44c0,.484-.8,1-1.085.7s.221-1.086.7-1.086a.384.384,0,0,1,.382.383m17.519.838a4.149,4.149,0,0,1,.74,1.253c-1.834.429-3-.1-1.251-.569.6-.161.572-.236-.2-.484-.5-.162-.916-.548-.916-.859,0-.926.7-.646,1.631.66m-14.668.184c0,.949-1.01,2.132-1.672,1.959-.863-.225-1-.73-.323-1.154a.62.62,0,0,1,.808.282c.264.417.357.323.362-.354,0-.5.189-.916.413-.916s.407.082.407.184m11,.4c0,.335-.349.56-.808.525s-.807-.3-.807-.586.365-.524.807-.524.808.264.808.585m-2.048,2.483c-.834,1.008-1.293.663-.517-.382.4-.54.8-.808.873-.6a1.275,1.275,0,0,1-.356.981m-.315,2.31a.76.76,0,0,1-.884.129c-.323-.2-.241-.457.27-.832.808-.6,1.324,0,.614.7m8.678-.9c.139.223.162.407.057.407a4.068,4.068,0,0,0-.844.249c-.475.182-.58.073-.4-.407.286-.742.808-.853,1.184-.249m3.462.2c0,.336-.205.611-.457.611-.324,0-.3.189.05.611.414.5.39.611-.131.611-.915,0-1.2-.669-.69-1.617s1.226-1.087,1.226-.212m2.073-.022c.2-.127.372-.047.372.178a.891.891,0,0,1-.407.659c-.225.139-.407.162-.407.057a4.633,4.633,0,0,0-.137-.737c-.074-.3-.06-.4.035-.235a.381.381,0,0,0,.532.087l.012-.009m-20.58.438c-.838.633-1.305.533-.861-.186a1.2,1.2,0,0,1,.957-.422c.6.012.593.086-.1.608m12.4.7c0,.343-.142.381-1.729.484-1.057.065-1.388-.176-.908-.658.323-.323,2.637-.161,2.637.178m1.632.716c0,.178-.5.507-1.121.73s-1.443.537-1.838.7c-.541.219-.658.135-.475-.339a.614.614,0,0,1,.724-.446c.266.1.737-.162,1.047-.6.529-.733,1.662-.761,1.662-.04m-5.011.4c-.125.485-.013.808.272.808s.484.346.484.768-.213.687-.472.589c-.629-.241-1,.808-.544,1.533.294.464.365.436.37-.139,0-.393.189-.713.413-.713.553,0,.514.544-.081,1.139-.671.67-1.548.615-1.548-.1s-.808-1.275-1.165-.789a1.611,1.611,0,0,1-.839.485c-.485.1-.485.016-.051-.509a1.747,1.747,0,0,1,1.087-.634c.7,0,.72-.475.052-1.224-.435-.485-.4-.485.221-.016a1.2,1.2,0,0,1,.507,1.2c-.151.438-.024.391.39-.142.693-.9.787-1.456.243-1.456-.2,0-.273-.367-.161-.807s.4-.808.621-.808.312.367.195.808m14.073,1.314c.2-.061.26.058.131.266s-.58.29-1,.178a.991.991,0,0,0-1.018.205c-.368.6.162,1.7.808,1.7a.592.592,0,0,1,.568.611c0,.34-.362.612-.808.612s-.808.271-.808.611c0,.677-.719.789-1.58.243a.633.633,0,0,1-.254-.853c.236-.382.4-.37.7.057s.343.39.17-.147a.863.863,0,0,1,.162-.94c.691-.429.413-.938-.4-.726-.635.161-.743.042-.562-.646.162-.6.034-.855-.421-.855-.395,0-.558-.228-.422-.587a.613.613,0,0,1,.777-.372c.3.117.792-.178,1.086-.654l.534-.867.989,1.131c.543.626,1.155,1.086,1.355,1.025M87.2,181.316c-.485.343-.792.875-.674,1.18a.7.7,0,0,1-.22.828c-.272.161-.436-.188-.436-.944,0-1.184.4-1.589,1.616-1.656.385-.021.282.19-.29.59m1.93.143c0,.646-1.131,1.351-1.412.884-.146-.236.032-.429.4-.429s.544-.184.407-.407-.057-.407.181-.407a.4.4,0,0,1,.429.357m18.929.076c-.148.239-.172.53-.056.646.324.323,1.9-.265,1.9-.7,0-.525-1.519-.485-1.85.055M92.52,183.366c-.357.931-.848.673-.848-.446,0-.808.116-.928.537-.58a.99.99,0,0,1,.313,1.026m11.692-.336c.012.679.038.679.554,0,.848-1.116,1.161-.834.386.35-.677,1.031-1.768.58-1.768-.732,0-.677.808-.3.828.382m9.193.162c.179.293.112.36-.182.182s-.468-.019-.468.394c0,.58-.1.6-.647.145-.664-.551-.638-.583.931-1.161.042-.016.208.183.368.442m-11.656.853c0,.742-.082.8-.4.305-.511-.789-.511-1.222,0-1.222.225,0,.4.413.4.916m9.792.112c.783.942.323,1.038-.766.161-.655-.529-.769-.779-.356-.779a1.748,1.748,0,0,1,1.122.622m-20.69.954c-.162.409.018.484.66.278s.819-.133.646.3c-.249.647-2.425.724-2.425.088a2.038,2.038,0,0,0-.3-.873c-.2-.307.034-.446.668-.407s.891.249.75.616m11.029.868c-.118.448-.4.808-.619.808s-.107.458.26,1.018.5,1.018.3,1.018c-1.2,0-1.674-3.087-.517-3.394a5.782,5.782,0,0,0,.726-.224,2.682,2.682,0,0,1-.149.768m13.325-.057c0,.143-.459.288-1.018.323-1.055.06-1.4-.468-.509-.779.59-.207,1.527.074,1.527.459m1.793-.282c-.117.186-.031.339.188.339a.685.685,0,0,0,.559-.484c.112-.336.463-.26,1.155.251.969.721.969.73.078.521-.5-.116-.917-.045-.917.162,0,.56-.8.443-1.455-.213-.734-.734-.732-.914.01-.914.323,0,.5.154.383.34m-20.815,1.183c.235.892-.135,1.02-.858.3-.382-.38-.485-.38-.485,0,0,.7-.683.6-.97-.143-.134-.349-.081-.533.117-.41s.464-.049.591-.38c.3-.784,1.347-.372,1.617.635m14.547-.47a.772.772,0,0,1-.509.58c-.28.113,0,.219.611.236,1.389.041,1.474.685.123.942-1.293.249-1.94-.384-1.413-1.38.419-.784,1.188-1.028,1.188-.38m15.077.034c0,.225.274.407.609.407s.611-.184.611-.407-.274-.407-.611-.407-.609.184-.609.407m-18.335.808c0,.225-.5.39-1.121.367l-1.12-.041,1.018-.323c.561-.18,1.064-.344,1.121-.366s.1.143.1.366m6.92.666c0-.194.464-.051,1.024.315.877.574,1.018.582,1.018.06,0-.362.238-.516.589-.382.5.192.509.407.029,1.515-.307.709-.658,1.616-.777,2-.379,1.222-1.151.827-.871-.444a1.547,1.547,0,0,0-.375-1.68c-.513-.426-.629-.426-.629,0,0,.885-.432.15-.638-1.09-.146-.877-.092-1.018.216-.56.225.336.414.453.416.259m-1.216,1.326c0,.2-.275.469-.612.6-.371.143-.611,0-.611-.364a.606.606,0,0,1,.611-.6c.336,0,.612.161.612.363m7.741.248c0,.336.184.611.407.611s.407-.274.407-.611-.184-.611-.407-.611-.407.274-.407.611m-15.075.153a1.546,1.546,0,0,1-.578.839c-.475.394-.54.323-.361-.358.213-.819.939-1.189.939-.484m-11.013,1.386a1.338,1.338,0,0,0,1.15-.192c.251-.251.323-.013.19.658-.162.86-.045,1.049.663,1.049.474,0,.861-.183.861-.407s.367-.407.808-.407.807.184.807.407-.137.378-.305.343a2.183,2.183,0,0,0-.916.171c-1.165.45-2.851.593-2.851.246,0-.192-.27-.351-.6-.351-.366,0-.507-.24-.364-.612.129-.336.031-.609-.216-.609s-.43-.413-.4-.916c.033-.622.105-.7.227-.246a1.409,1.409,0,0,0,.936.87m7.376.071c.208-.127.378-.037.378.205,0,.272-.425.336-1.12.17-1.523-.366-1.591-.485-.684-1.149.7-.518.8-.495.917.213.073.436.3.688.509.56m5.706-.485c-.05.485-.61.393-.784-.132-.089-.268.057-.416.323-.324s.475.3.458.46m3-.145c.127.205-.045.646-.386.992s-.45.722-.243.852.457,0,.559-.28.324-.383.485-.227.019.575-.331.926c-.582.583-.683.563-1.1-.216-.263-.485-.7-.761-1.038-.634-.789.3-.73-.143.133-1.018.793-.808,1.564-.97,1.915-.4m3.472.425c.323.207.475.5.323.646s-.57-.022-.934-.384c-.718-.718-.354-.878.609-.269m4.273.4c.41.662-.369.792-1.187.2-.766-.561-.764-.575.083-.575a1.481,1.481,0,0,1,1.1.38m5.819.188c-.955.723-.9,1.469.1,1.469.452,0,.808-.272.808-.611s.194-.611.432-.611.323-.184.179-.407c-.323-.534-.661-.5-1.527.161m-22.306.961c-.019.918-.787,1.508-1.294,1-.425-.425-.411-.595.086-.907.737-.466,1.22-.5,1.212-.09m15.009.372c-.073.371-.7.876-1.394,1.12s-1.186.666-1.086.952-.022.511-.265.511-.443.3-.443.661c0,.56-.1.578-.655.116-.41-.339-.484-.6-.2-.7.8-.266.485-.9-.668-1.363-.677-.27-.91-.525-.588-.646a1.456,1.456,0,0,1,1.222.423c.621.558.785.544,1.649-.161.527-.429,1.124-.677,1.324-.555s.366-.059.366-.409.2-.635.436-.635.378.3.305.677m-13.445.428a1.4,1.4,0,0,1-.792.523c-.2,0-.357-.236-.357-.523s.357-.524.792-.524c.6,0,.687.127.358.524m10.258-.291c0,.225-.275.407-.611.407s-.61-.184-.61-.407.275-.407.61-.407.611.184.611.407m19.558.611a4.472,4.472,0,0,0,1.427.582c.223,0-.051-.261-.611-.582a4.5,4.5,0,0,0-1.427-.582c-.223,0,.051.262.611.582m-12.1,1.018c-.09,1.294.443,1.657.853.584.173-.452.517-.557,1.164-.358.845.26.83.212-.162-.583-1.442-1.153-1.754-1.093-1.854.357m-24.569-.451c0,.3,1.464.9,2.512,1.03a1.256,1.256,0,0,1,.577.338c.525.525.985.336,1-.407.012-.624.074-.637.509-.1a1.876,1.876,0,0,0,1.277.612,1.007,1.007,0,0,1,.933.455c.1.287-.272.4-.985.3-.626-.084-.918-.049-.646.081a.733.733,0,0,1,.228.918c-.223.6-.161.616.432.127s.687-.468.687.1c0,.364.184.661.407.661a.446.446,0,0,0,.407-.475c0-.26.11-.365.245-.229s-.049.664-.407,1.177c-.548.784-.646.816-.646.207,0-.4-.184-.611-.411-.472-.634.391-2.034-.191-2.034-.846,0-.323-.19-.583-.425-.583a4.086,4.086,0,0,1-1.525-1.018,3.979,3.979,0,0,0-1.563-1.019,1.633,1.633,0,0,1-.969-.611c-.351-.421-.366-.611-.05-.611a.421.421,0,0,1,.458.364m20.778,1.568c0,.282-.436.513-.969.513a1.1,1.1,0,0,0-1.183.807c-.213.808.069.97,1.441.836a.592.592,0,0,1,.7.458.554.554,0,0,1,.012.094c0,.413-.228.537-.677.364s-.582-.1-.382.216c.179.29.035.477-.364.477-.364,0-.555-.172-.425-.38s-.181-.673-.689-1.03c-.591-.415-.765-.757-.485-.946a4.766,4.766,0,0,0,1-1.573c.566-1.293,2.027-1.188,2.027.162m9.177-.38c-.495.495-.143.773.842.666,1.455-.161,1.617-.448.4-.682a2.113,2.113,0,0,0-1.24.016m58.253.078c-.513.22-.589.349-.2.349a4.51,4.51,0,0,0,1.426-.349c.513-.222.59-.351.2-.351a4.49,4.49,0,0,0-1.427.351m-55.023.78c.128.2,0,.454-.282.555s-.365.339-.184.531.5.081.707-.249c.5-.793.485-1.21-.041-1.21-.236,0-.323.161-.2.373m2.263.035c0,.511.431.511,1.222,0,.495-.323.436-.4-.305-.4-.5,0-.916.178-.916.4m49.5,0c-1.038.446.035.446,1.427,0,.82-.262.859-.323.2-.338a4.754,4.754,0,0,0-1.631.338m-70.781.738c.246.734-.6.579-.881-.161-.151-.4-.061-.584.236-.485a1.159,1.159,0,0,1,.646.646m8.142-.022c.147.443-.4.484-1.858.129-.07-.017,0-.223.139-.461.343-.554,1.5-.333,1.718.323m9.307.755a.665.665,0,0,1-.839.425c-.47-.181-.515-.031-.224.738.273.716.216,1.022-.221,1.19-.9.346-.7,1.02.228.777.448-.116.808-.019.808.217s.354.4.787.37c.732-.055.721-.124-.18-1.024-.989-.99-.969-2.126.049-2.126.634,0,.767-.646.2-.992-.2-.125-.476.067-.614.425m-22.04.162c.139.223-.127.407-.587.407s-.839-.184-.839-.407.264-.408.587-.408a1.079,1.079,0,0,1,.839.408m17.8.081c-.656.654-.615,1,.149,1.293.485.186.577.057.39-.533-.171-.54-.022-.838.485-.97.543-.14.568-.2.1-.235a1.651,1.651,0,0,0-1.12.443M120.3,199.41a.449.449,0,0,1-.6.2c-.292-.182-.3-.572-.027-1.838.024-.113.231.118.46.513a1.3,1.3,0,0,1,.162,1.131m29.952-.824c1.394.446,2.465.446,1.425,0a4.74,4.74,0,0,0-1.629-.338c-.655.01-.616.074.2.338m20.2.3a12.653,12.653,0,0,1-2.993.553l-2.748.307,2.854-.175c1.568-.095,3.173-.184,3.564-.2s.713-.084.713-.162c0-.286-1.156-.559-1.387-.323m-56.615.718c-.129.336-.057.611.162.611s.394-.274.394-.611.2-.611.452-.611.349.268.221.6c-.3.789.543,1.293.981.587.583-.944.683-.22.118.853-.3.56-.54.8-.543.522a.352.352,0,0,0-.516-.324c-.627.222-1.69-.572-2.05-1.529-.184-.484-.067-.713.374-.713.4,0,.554.228.407.611m9.11.323a3.131,3.131,0,0,1-1.018.146c-.986.057-1.294-.26-.76-.791.212-.213,1.778.356,1.778.646m6.112-.756a3.354,3.354,0,0,0,1.658,1.455c.207,0,.012-.367-.436-.808-.781-.783-1.222-1.014-1.222-.646m24.853.21c1,.341,5.19.579,4.849.275a18.786,18.786,0,0,0-3.023-.389c-1.8-.149-2.476-.106-1.834.113m-35.039.634c.307.37.339.611.084.611-.748,0-1.713-.485-1.713-.858,0-.584,1.077-.421,1.631.247m4.915,1.033c1.241.664.923,1.216-.637,1.1a7.653,7.653,0,0,1-1.425-.169c-.012-1.18.863-1.578,2.063-.936m13.044.94c-.323.595-.454,1.2-.305,1.353s.272.058.272-.2a.558.558,0,0,1,.611-.475c.336,0,.611.184.611.407,0,.722,1.122.434,1.323-.341.161-.595,0-.711-.73-.57-.646.124-.969-.039-1.065-.538-.113-.579-.249-.511-.717.367m-17.046.475c.162.828.089.934-.36.56-.619-.514-.752-1.584-.2-1.584.2,0,.448.461.554,1.022m11.1-.207c-.137.225.041.407.4.407a1.047,1.047,0,0,1,.892.634.646.646,0,0,0,.807.421c.307-.118.558-.042.558.161s.275.277.611.148c.943-.362.724-.7-.958-1.471-1.8-.829-1.964-.85-2.3-.305m-18.377.646c.366.951.338.986-.775.986-.919,0-.969-.081-.512-.808.613-.983.958-1.028,1.293-.171M130.8,204.4c.055.282-.139.461-.435.4s-.5.2-.462.611c.124,1.222,0,1.741-.429,1.741-.225,0-.407-.254-.407-.564s-.448-.646-.992-.753c-1.072-.2-1.94.149-1.834.744.162.881-.066,1.348-.572,1.155-.747-.287-1.709.868-1.059,1.269a.582.582,0,0,0,.789-.22.571.571,0,0,1,.769-.231c.264.162.454,0,.454-.4,0-.495.225-.613.808-.432l1.578.485c.575.18.828-.021,1.026-.808.162-.674.545-1.052,1.047-1.052a1.349,1.349,0,0,0,1.035-.407c.139-.225.037-.408-.228-.408s-.39-.341-.266-.807c.139-.53.013-.808-.36-.808a.433.433,0,0,0-.475.386.41.41,0,0,0,.005.123m-4.381.305c-.137.225-.012.421.282.439s1.016.07,1.606.113c.724.055,1.009-.089.873-.439-.235-.614-2.395-.7-2.761-.113m-11.572.713c.3.393.584.777.633.855s.293.016.544-.137c.59-.364-.24-1.431-1.111-1.431-.519,0-.529.108-.065.713m4.042.305a.606.606,0,0,1-.6.611c-.364,0-.507-.239-.364-.611.129-.336.4-.611.6-.611s.364.274.364.611m12.362,2.541c-.061,1.054-.034,1.072.509.323.71-.969.73-1.443.065-1.443-.28,0-.538.5-.574,1.116m5.973-.5c0,.336.184.611.407.611s.407-.274.407-.611-.184-.611-.407-.611-.407.274-.407.611" transform="translate(-6.539 -2.54)" fill="#e18431" fill-rule="evenodd"/>
            <path id="Path_111" data-name="Path 111" d="M69.153,0c-7.72.315-19.761,4.511-19.761,4.511l-1.921.982C38.725,9.959,27.69,22.16,20.209,35.628,5.928,61.34.582,82.3.049,114.655c-.842,51.113,9.194,86.256,31.189,109.227L32.308,225h5.654c13.622,0,20.089-1.751,27.93-7.562,4.3-3.19,4.272-3.543-.872-9.661C46.732,186.022,31.5,156.433,27.6,135.082c-5.952-32.6-.291-58.617,19-87.319C58.022,30.778,67.988,21.183,80.321,15.3c4.221-2.012,5.473-1.433,1.823.844-14.3,8.926-20.565,14.764-30.269,28.221C19.016,89.93,24.524,150.6,66.1,201.087c8.641,10.492,16.149,15.944,23.117,16.79,4.151.5,98.317.477,127.995-.037l15.619-.269,2.719-1.278c10.24-4.811,35.565-43.975,42.987-66.479,6.258-18.969,7.015-44.578,1.909-64.6-7.966-31.244-20.655-51.468-42.7-68.065-5.871-4.42-6.224-5.139-1.154-2.351C251.6,23.062,270.912,47,280.008,68.621c12.534,29.792,12.476,62.484-.167,94.226-1.932,4.851-2.641,6.279-7.085,14.29a298.479,298.479,0,0,1-22.979,34.113c-2.708,3.348-2.643,3.146-1.188,3.654a36.367,36.367,0,0,1,4.458,2.477c24.716,15.491,40.348,8.291,53.329-24.561,4.529-11.461,6.77-20.98,8.739-37.11,4.088-33.476,2.591-61.047-4.794-88.316C303.334,41.594,288,17.558,271.541,6.616c0,0-1.192-.777-2.26-1.5s-11.99-3.264-15.956-3.337M193.982,17.738c10.266.342,17.47.943,21.429,1.791,31.953,6.846,61.217,66.627,54.406,111.147-4.8,31.36-31.884,70.368-51.188,73.714-7.96,1.38-90.694,2.48-106.19,1.412-20.529-1.416-32.915-9.489-47.142-30.73C45.239,145.129,39.515,113.719,48.96,85.417c5.833-17.478,8.65-23.169,19.781-39.957,8.966-13.522,22.434-24.52,33.188-27.1,4.148-.994,67.886-1.426,92.053-.622" transform="translate(0)" fill="#050c0c" fill-rule="evenodd"/>
          </g>
        </g>
        <g id="Group_111" data-name="Group 111" transform="translate(-18181.254 -1546.045)">
          <g id="Group_110" data-name="Group 110" transform="translate(0 0)" clip-path="url(#clip-path-2)">
            <path id="Path_112" data-name="Path 112" d="M50.014.149C39.167.265,23.829.383,15.932.414S1.389.587,1.162.73C.865.919.672,5.059.455,15.863.292,24.042.086,30.927,0,31.162c-.146.4,260.749.712,261.148.313.072-.073.022-6.643-.111-14.6L260.792,2.4l-1.068-1.158L258.656.085,164.2.012C112.248-.028,60.863.034,50.015.149m59.308,7.082c.25.251.358,13.25.12,14.492l-.168.88H95.623l-.237-5.839c-.275-6.776.2-9.3,1.861-9.8.974-.292,11.757-.057,12.078.263m55.08.163c.92.49,1.455,10.2.785,14.256l-.216,1.3h-7.008c-8.341,0-7.423.97-7.433-7.849-.007-8.408-.212-8.011,4.221-8.173,4.341-.163,8.885.061,9.646.469m56.649,5.347c.059,3.044.007,6.669-.117,8.051l-.224,2.516-6.977-.094-6.977-.094-.094-6.654c-.141-9.965-.9-9.262,9.955-9.262h4.329l.107,5.536M53,8.3c.64.771,1.054,11.536.508,13.255-.5,1.592-1.368,1.746-8.27,1.492l-5.473-.2.115-7.067c.1-6.529.157-7.106.778-7.558,1.062-.775,11.694-.7,12.348.082" transform="translate(0 0)" fill="#070d08" fill-rule="evenodd"/>
          </g>
        </g>
      </g>
    </g>
  </g>
</svg>
