<svg id="Gruppe_44" data-name="Gruppe 44" xmlns="http://www.w3.org/2000/svg" xmlns:xlink="http://www.w3.org/1999/xlink" width="2619.504" height="805.692" viewBox="0 0 2619.504 805.692">
  <defs>
    <clipPath id="clip-path">
      <rect id="Rechteck_28" data-name="Rechteck 28" width="2619.504" height="805.692" fill="none"/>
    </clipPath>
  </defs>
  <g id="Gruppe_43" data-name="Gruppe 43" clip-path="url(#clip-path)">
    <path id="Pfad_14" data-name="Pfad 14" d="M1437.231,7.665c37.263-3.335,96.009.113,99.45,1.109,4.793,1.381,6.263,1.192,8.553-1.11,2.12-2.12,5.087-2.585,12.464-1.939,5.339.461,20.3.128,33.257-.75,26.9-1.815,115.453.4,122.205,2.174,2.46.644,7.44.307,11.064-.748s18.362-2.016,32.737-2.124c14.394-.114,28.081-.559,30.427-.994s12.058.131,21.6,1.265a234.217,234.217,0,0,0,33.129,1.2c31.555-1.708,214.505-11.1,307.575-1.47,61.971,6.415,202.3,29.888,248.571,41.579,8.214,2.073,28.3,7.028,44.655,11.012s29.9,8.476,30.082,9.988,3.333,2.378,7.013,1.926,6.79-.027,6.91.943,9.523,5.669,20.9,10.439c185.515,77.81,129.764,279.176-92.239,400.2-94.381,51.453-134.688,68.383-265.9,111.7-97.377,32.144-128.119,41.185-141.8,41.712-9.046.348-12.48,1.385-12.35,3.721.209,3.836-53.99,20.088-67.994,20.384-5.46.114-10.974,1.775-12.972,3.9-1.9,2.034-11.661,5.647-21.689,8.036-249.666,59.469-457.1,97.352-612.506,111.861-38.759,3.615-75,7.064-80.522,7.66-17.733,1.911-68.785,4.891-141.526,8.266-115.8,5.374-157.135,6.973-185.783,7.166-14.931.1-43.887.475-64.379.828s-58.749-.267-85.02-1.381-69.233-2.865-95.495-3.9c-134.907-5.326-350.078-43.233-436.885-76.974-10.62-4.124-24.044-9.157-29.836-11.183-14.309-5.021-65.332-37.045-87.324-54.821-111.349-89.99-110.127-347.909,99.77-449.349,16.359-7.9,29.666-14.834,29.6-15.408C202.325,187.3,325.816,80.693,389.661,59.784c15.5-5.072,25.728-10.691,38.881-15.507S469.187,32.6,473.467,32.07c4.3-.528,8.719-1.727,9.856-2.661,3.786-3.124,208.873,10.987,270.652-2.27,10.9-2.34,25.773-5.644,33.037-7.345,26.672-6.232,192.426,4.856,215.017,1.054,12.8-2.15,42.684-7.588,66.407-12.083,54.426-10.31,279.04,6.923,368.8-1.1M1343.19,26.5c-8.054,4.456-8.272,5.236-1.019,3.588,5.1-1.16,10.612-3.829,12.234-5.935,3.928-5.088,1.167-4.51-11.215,2.346M1122.8,5.721c.119.973,1.484,1.613,3.024,1.424s-3.118,46.133,3.589,45.994c10.884-.228,11.083-.442,2-1.973-11.569-1.954-8.931-48.042-8.612-45.445M1605.329,17.2c8.855,1.213,17.354-1.607,10.669-3.547-2.6-.751-7.723-.484-11.4.586-4.462,1.306-4.238,2.28.728,2.96M957.312,94.953c2.468,4.955,12.99,6.6,12.862,2.007-.072-2.7-3.132-4.552-6.811-4.1s-6.4,1.39-6.052,2.088m-617.6-9.706c.179,1.457,5.2,2.052,11.179,1.318,8.884-1.091,9.288-1.627,2.19-2.96-4.749-.9-9.775-1.491-11.161-1.32a2.626,2.626,0,0,0-2.208,2.962m628.881,34.516c4.02,2.454,14.833,1.356,27.752-2.824,11.013-3.569,10.235-3.675-9.11-1.3-11.624,1.427-20.014,3.284-18.643,4.122M368.438,149.067c1.272.17,10.821-1.178,21.215-2.991,12.878-2.247,16.089-3.408,10.1-3.646-7.841-.314-37.021,5.872-31.315,6.637M253.6,207.265c1.446.883,5.488,1.254,8.98.826s7.325-1.768,8.515-2.974-2.853-1.578-8.981-.826-9.961,2.091-8.514,2.974M95.792,474.778c-11.692,7.672-7.357,9.991,13.835,7.389,24.188-2.97,28.956-5.47,19.721-10.343-8.435-4.447-24.439-3.038-33.556,2.954M2530.449,237.993c.382,3.116,14.708.806,18.435-2.975,1.314-1.332-2.362-1.841-8.2-1.124-5.82.714-10.425,2.556-10.235,4.1m-80.379,8.822c-7.928,2.379-6.928,2.6,5.228,1.121,15.565-1.879,20.476.044,8.8,3.454-12.213,3.566-.267,3.908,20.246.582,24.771-4.024,24.822-4.321,1.158-6.848-21.623-2.309-22.176-2.282-35.432,1.692m-769.626,282.84c-2.141,1.25-2.035,2.817.253,3.482,5.784,1.674,23.6-2.664,23.233-5.658-.347-2.828-17.631-1.225-23.486,2.178M1915.36,646.112c.119.973,4.719,1.216,10.249.537,5.513-.677,9.916-2.023,9.8-3s-4.72-1.216-10.231-.539c-5.53.679-9.935,2.026-9.815,3M694.987,795.955c-2.159,1.253-1.759,2.9.885,3.671,4.738,1.37,15.812-2.979,15.667-6.155-.084-1.956-11.994-.172-16.55,2.482m893.391-85.607c-4.514,4,10.97,5.279,22.645,1.867,7.6-2.219,7.612-2.974.1-4.393-11.278-2.124-18.41-1.331-22.749,2.527" fill="#f1dfbb" fill-rule="evenodd"/>
  </g>
</svg>
